<svg width="164" height="135" viewBox="0 0 164 135" fill="none" xmlns="http://www.w3.org/2000/svg">
<path d="M45.767 118.612C45.2793 118.612 44.7916 118.417 44.4014 118.027C33.1839 107.297 27.0387 92.861 27.0387 77.3516C27.0387 46.3328 52.3024 21.0691 83.3212 21.0691C94.051 21.0691 104.488 24.0929 113.56 29.848C114.438 30.4333 114.73 31.6038 114.145 32.5792C113.56 33.4571 112.389 33.7497 111.414 33.1645C103.025 27.7996 93.2706 24.9708 83.3212 24.9708C54.4484 24.9708 30.9404 48.4788 30.9404 77.3516C30.9404 91.1052 36.2077 103.981 45.767 113.833L60.2034 99.689C60.9838 98.9087 62.2518 98.9087 62.9346 99.689C63.715 100.469 63.715 101.737 62.9346 102.42L47.1326 118.027C46.7424 118.417 46.2547 118.612 45.767 118.612Z" fill="#F7F6FB"/>
<path d="M85.4671 135C74.7374 135 64.3002 131.976 55.2287 126.221C54.3508 125.636 54.0582 124.465 54.6434 123.49C55.2287 122.612 56.3992 122.319 57.3747 122.904C65.7634 128.269 75.5177 131.098 85.4671 131.098C114.34 131.098 137.848 107.59 137.848 78.7172C137.848 64.9636 132.581 52.0879 123.021 42.236L108.585 56.3798C107.805 57.1602 106.537 57.1602 105.854 56.3798C105.171 55.5995 105.073 54.3314 105.854 53.6486L121.656 38.1392C122.436 37.3589 123.607 37.3589 124.387 38.1392C135.604 48.869 141.75 63.3054 141.75 78.8148C141.75 109.736 116.486 135 85.4671 135Z" fill="#F7F6FB"/>
<path d="M0.019165 73.9379L0.409338 71.4018L13.7728 69.1583V69.0607L1.48232 63.2081L1.87249 60.5745L16.8942 67.6951L16.4064 71.1091L0.019165 73.9379Z" fill="#F7F6FB"/>
<path d="M4.31107 57.3556C3.9209 57.5507 3.53073 57.5507 3.04301 57.4531C2.65284 57.3556 2.26266 57.063 2.06758 56.7703C1.87249 56.3802 1.87249 55.99 1.97003 55.5998C2.06758 55.2096 2.36021 54.917 2.75038 54.7219C3.14055 54.5268 3.53073 54.5268 3.9209 54.6244C4.31107 54.7219 4.70125 55.0145 4.89633 55.3072C5.09142 55.6974 5.18896 56.0875 5.09142 56.4777C4.89633 56.8679 4.6037 57.1605 4.31107 57.3556ZM6.65211 58.2335L7.33492 55.6974L18.845 59.0138L18.1622 61.4524L6.65211 58.2335Z" fill="#F7F6FB"/>
<path d="M12.017 49.3571L17.4794 51.5031C17.9671 51.6982 18.3573 51.7957 18.65 51.8932C18.9426 51.8932 19.1377 51.8932 19.3328 51.6982C19.5278 51.5031 19.7229 51.2104 19.918 50.7227C20.0156 50.5276 20.1131 50.1375 20.2106 49.7473L21.9664 50.4301C21.9664 50.5276 21.8689 50.7227 21.7713 51.1129C21.6738 51.5031 21.5763 51.8932 21.3812 52.1859C20.991 53.0638 20.6008 53.7466 20.1131 54.0392C19.6254 54.3318 19.2352 54.5269 18.7475 54.4294C18.2598 54.3318 17.6745 54.2343 16.9917 53.9416L11.0416 51.6982L10.2612 53.5515L8.31036 52.7711L9.0907 50.9178L5.4816 49.4547L6.45703 47.0161L10.0661 48.4792L11.0416 46.1382L12.9924 46.9185L12.017 49.3571Z" fill="#F7F6FB"/>
<path d="M21.7713 47.5037C20.4057 47.6013 18.845 47.2111 17.2843 46.2357C15.7236 45.2602 14.6507 44.1873 14.0654 42.8217C13.4801 41.5536 13.5777 40.2855 14.358 39.0175C14.8457 38.1396 15.431 37.6519 16.2114 37.3592C16.9917 37.0666 17.577 37.0666 18.1622 37.1641L18.2598 36.9691L16.6015 35.8961L17.9671 33.6526L28.2092 39.7978L26.8436 42.0413L24.9903 40.8708L24.8927 41.0659C25.2829 41.6511 25.5755 42.2364 25.6731 43.0167C25.7706 43.7971 25.5755 44.5774 25.0878 45.3578C24.2099 46.7234 23.1369 47.4062 21.7713 47.5037ZM23.6247 41.1634C23.2345 40.3831 22.5517 39.7003 21.5762 39.115C20.6008 38.5298 19.7229 38.2371 18.845 38.3347C17.9671 38.3347 17.2843 38.7248 16.7966 39.6027C16.3089 40.3831 16.3089 41.261 16.6991 42.0413C17.0892 42.8217 17.7721 43.5045 18.7475 44.0897C19.7229 44.675 20.6008 44.9676 21.4787 44.9676C22.3566 44.9676 23.0394 44.5774 23.5271 43.6996C23.9173 42.7241 24.0148 41.9438 23.6247 41.1634Z" fill="#F7F6FB"/>
<path d="M20.5033 29.7505L22.3566 27.8972L23.8197 29.2628L23.9173 29.1652C23.8197 28.9701 23.7222 28.6775 23.6247 28.2873C23.5271 27.8972 23.5271 27.4095 23.6247 26.8242C23.7222 26.2389 24.0148 25.7512 24.5025 25.166C25.0878 24.5807 25.6731 24.2881 26.2583 24.1905C26.8436 24.093 27.4288 24.093 27.9166 24.1905C28.4043 24.2881 28.6969 24.3856 28.892 24.4832L28.9895 24.3856C28.7945 23.8004 28.5994 23.1175 28.5994 22.3372C28.5018 21.5569 28.892 20.679 29.7699 19.8986C30.4527 19.2158 31.1355 18.8256 31.9158 18.8256C32.6962 18.7281 33.4765 18.9232 34.1593 19.3134C34.8421 19.7035 35.5249 20.0937 36.0127 20.5814L41.1825 25.6537L39.3291 27.507L34.3544 22.6298C33.6716 21.947 32.9888 21.6544 32.4036 21.6544C31.8183 21.6544 31.233 21.8495 30.7453 22.3372C30.2576 22.8249 30.0625 23.4102 30.0625 24.093C30.0625 24.7758 30.3551 25.4586 31.0379 26.0438L36.0127 30.921L34.1593 32.8719L29.1846 27.9947C28.5018 27.3119 27.819 27.0193 27.2338 27.0193C26.6485 27.0193 26.0632 27.2144 25.5755 27.7021C25.0878 28.1898 24.8927 28.7751 24.8927 29.4579C24.8927 30.1407 25.2829 30.8235 25.8681 31.4087L30.8429 36.2859L28.9895 38.1392L20.5033 29.7505Z" fill="#F7F6FB"/>
<path d="M35.1348 12.7782C34.7446 12.6807 34.3544 12.4856 34.1593 12.0954C33.8667 11.7053 33.7692 11.3151 33.8667 10.9249C33.9643 10.5347 34.1593 10.1446 34.452 9.94947C34.8422 9.65684 35.2323 9.65684 35.6225 9.75438C36.0127 9.85193 36.4028 10.047 36.5979 10.4372C36.8906 10.8274 36.9881 11.2175 36.8906 11.6077C36.793 11.9979 36.5979 12.3881 36.3053 12.5831C35.9151 12.8758 35.525 12.8758 35.1348 12.7782ZM36.5004 15.0217L38.6463 13.5586L45.4744 23.3129L43.3284 24.7761L36.5004 15.0217Z" fill="#F7F6FB"/>
<path d="M41.9628 11.2177L44.3039 10.0472L45.1817 11.8029L45.2793 11.7054C45.2793 11.0226 45.3768 10.3398 45.6695 9.65698C45.9621 8.97418 46.5474 8.48646 47.3277 8.09629C48.5958 7.41349 49.7663 7.41349 50.8393 7.99875C51.9122 8.58401 52.6926 9.4619 53.2778 10.6324L56.5943 17.0703L54.2533 18.2408L51.1319 12.1931C50.6442 11.3152 50.1565 10.73 49.4737 10.4373C48.7908 10.1447 48.108 10.2422 47.4252 10.5349C46.6449 10.925 46.2547 11.5103 46.0596 12.1931C45.9621 12.8759 46.0596 13.6563 46.4498 14.4366L49.5712 20.4843L47.2302 21.6548L41.9628 11.2177Z" fill="#F7F6FB"/>
<path d="M58.6427 14.7291C57.5697 13.8512 56.7894 12.5832 56.2041 10.7298C55.7164 8.97405 55.6189 7.41336 56.1066 6.04775C56.5943 4.77969 57.4722 3.90179 58.8378 3.51162C59.8132 3.21899 60.5936 3.21899 61.2764 3.51162C61.9592 3.80425 62.4469 4.19443 62.8371 4.68214H63.0322L62.4469 2.73127L64.983 1.95093L68.3971 13.3635L65.8609 14.1438L65.2757 11.9979H65.0806C64.983 12.6807 64.7879 13.3635 64.3002 13.9488C63.8125 14.534 63.2273 15.0217 62.2518 15.3144C60.9838 15.8021 59.7157 15.607 58.6427 14.7291ZM64.3002 11.3151C64.4953 10.4372 64.4953 9.46177 64.2027 8.38879C63.9101 7.31581 63.4223 6.53547 62.7395 5.95021C62.0567 5.36495 61.2764 5.16986 60.3985 5.46249C59.5206 5.75512 58.9353 6.34038 58.6427 7.12073C58.4476 7.99862 58.4476 8.97405 58.7403 9.94948C59.0329 10.9249 59.5206 11.8028 60.2034 12.4856C60.8862 13.0709 61.6666 13.266 62.5445 12.9733C63.4223 12.7782 64.0076 12.193 64.3002 11.3151Z" fill="#F7F6FB"/>
<path d="M72.2012 12.5831C71.5184 12.2905 70.9332 11.9003 70.4455 11.3151C70.0553 10.7298 69.7627 10.1445 69.6651 9.46174V9.3642L72.2012 8.97402V9.07157C72.2988 9.55928 72.4939 9.94946 72.884 10.2421C73.2742 10.5347 73.7619 10.7298 74.4447 10.6323C75.03 10.5347 75.4202 10.3396 75.7128 10.047C76.0054 9.75437 76.103 9.3642 76.103 8.87648C76.103 8.48631 75.9079 8.09613 75.5177 7.90105C75.1275 7.70596 74.8349 7.60842 74.3472 7.60842L72.9816 7.51087C72.2012 7.51087 71.4209 7.31579 70.6406 6.82807C69.9577 6.34035 69.47 5.65755 69.3725 4.58457C69.2749 3.41405 69.5676 2.53616 70.2504 1.75581C70.9332 0.975467 71.9086 0.585294 73.0791 0.487751C73.957 0.390207 74.7374 0.487751 75.4202 0.780381C76.103 1.07301 76.6882 1.46318 77.0784 1.9509C77.4686 2.43862 77.7612 3.02388 77.7612 3.70668V3.80422L75.2251 4.09685V3.99931C75.2251 3.60914 75.03 3.21896 74.6398 2.92633C74.3472 2.6337 73.8595 2.43862 73.1767 2.53616C72.689 2.6337 72.2012 2.82879 72.0062 3.12142C71.7135 3.41405 71.616 3.80422 71.616 4.29194C71.616 4.68211 71.8111 4.97474 72.2012 5.16983C72.4939 5.36492 72.884 5.46246 73.3718 5.56L74.8349 5.65755C75.8103 5.75509 76.5907 6.04772 77.2735 6.53544C77.9563 7.02315 78.3465 7.70596 78.444 8.77894C78.5416 9.55928 78.444 10.1445 78.1514 10.8273C77.8588 11.4126 77.371 11.9003 76.7858 12.2905C76.2005 12.6807 75.4202 12.8758 74.6398 12.9733C73.7619 12.9733 72.884 12.8758 72.2012 12.5831Z" fill="#F7F6FB"/>
<path d="M87.2229 11.6074C86.4426 10.9246 85.9549 10.1443 85.6622 9.07128C85.3696 8.09585 85.272 7.02287 85.4671 6.04744C85.5647 4.97446 85.9548 3.99903 86.4426 3.12114C86.9303 2.24325 87.6131 1.56045 88.491 1.07273C89.3689 0.585012 90.3443 0.389925 91.6124 0.585012C93.1731 0.780099 94.3436 1.4629 95.1239 2.63342C95.9043 3.80394 96.1969 5.36464 96.0018 7.41305L95.9043 8.19339L88.0033 7.21796V7.41305C87.9057 7.90076 88.0033 8.48602 88.1984 8.97374C88.3934 9.46146 88.6861 9.85163 89.0762 10.2418C89.4664 10.5344 89.9541 10.7295 90.4418 10.8271C91.0271 10.9246 91.6124 10.8271 92.1001 10.5344C92.5878 10.2418 92.978 9.85163 93.1731 9.36391L95.6116 9.559C95.2215 10.632 94.5387 11.5099 93.5632 12.1927C92.5878 12.7779 91.5148 13.0706 90.1492 12.8755C88.9787 12.7779 88.0033 12.2902 87.2229 11.6074ZM93.5632 5.9499C93.6608 4.87692 93.4657 4.09657 93.0755 3.51131C92.6853 2.92605 92.1001 2.63342 91.3197 2.53588C90.5394 2.43834 89.759 2.63342 89.2713 3.12114C88.7836 3.60886 88.3934 4.3892 88.1984 5.26709L93.5632 5.9499Z" fill="#F7F6FB"/>
<path d="M107.512 0L111.024 1.56069L110.243 12.6806H110.341L117.949 4.48699L121.461 6.04769L115.218 20.5816L112.877 19.6062L117.559 8.68136H117.461L109.073 17.948L107.512 17.2652L108.39 4.77962H108.292L103.61 15.6069L101.269 14.6315L107.512 0Z" fill="#F7F6FB"/>
<path d="M123.509 12.0953L125.655 13.4609L119.12 23.5078L116.974 22.1422L123.509 12.0953ZM125.07 10.0469C124.972 9.65669 125.07 9.26652 125.362 8.87634C125.655 8.48617 125.948 8.29108 126.338 8.19354C126.728 8.096 127.118 8.19354 127.508 8.38863C127.899 8.58371 128.094 8.97389 128.191 9.36406C128.289 9.75423 128.191 10.1444 127.899 10.5346C127.606 10.9248 127.313 11.1198 126.923 11.2174C126.533 11.3149 126.143 11.2174 125.753 11.0223C125.362 10.8272 125.167 10.437 125.07 10.0469Z" fill="#F7F6FB"/>
<path d="M129.167 15.7043L131.117 17.3626L129.849 18.8257L129.947 18.9233C130.532 18.6306 131.215 18.5331 131.995 18.5331C132.776 18.5331 133.458 18.9233 134.044 19.411C135.117 20.3864 135.604 21.4594 135.507 22.6299C135.409 23.8004 134.824 24.8734 133.946 25.8489L129.167 31.4088L127.216 29.7506L131.703 24.5808C132.386 23.8004 132.678 23.1176 132.678 22.4348C132.678 21.752 132.386 21.1668 131.8 20.5815C131.117 19.9963 130.435 19.8012 129.752 19.9963C129.069 20.0938 128.386 20.5815 127.801 21.2643L123.314 26.4341L121.363 24.7759L129.167 15.7043Z" fill="#F7F6FB"/>
<path d="M132.385 34.0426C132.288 33.0672 132.581 32.0917 133.068 31.2138C133.556 30.336 134.239 29.5556 135.019 28.8728C135.897 28.19 136.775 27.7023 137.75 27.4097C138.726 27.117 139.701 27.117 140.677 27.4097C141.652 27.7023 142.53 28.2875 143.213 29.1654C144.188 30.4335 144.578 31.7016 144.286 33.0672C143.993 34.4328 143.115 35.7984 141.555 37.0664L140.969 37.5542L135.897 31.3114L135.799 31.4089C135.409 31.7016 135.117 32.1893 134.824 32.5795C134.629 33.0672 134.531 33.5549 134.531 34.0426C134.629 34.5303 134.824 35.018 135.117 35.4082C135.507 35.8959 135.995 36.1886 136.482 36.2861C136.97 36.3836 137.555 36.3836 138.043 36.2861L139.701 38.237C138.628 38.7247 137.555 38.8222 136.385 38.6271C135.312 38.4321 134.336 37.8468 133.458 36.7738C132.776 35.9935 132.385 35.018 132.385 34.0426ZM140.774 34.4328C141.555 33.75 142.042 33.0672 142.14 32.3844C142.237 31.7016 142.042 31.0188 141.555 30.4335C141.067 29.7507 140.384 29.4581 139.604 29.4581C138.823 29.4581 138.141 29.7507 137.36 30.336L140.774 34.4328Z" fill="#F7F6FB"/>
<path d="M148.09 36.2861L149.358 38.5296L147.7 39.5051L147.797 39.6026C148.383 39.5051 148.87 39.6026 149.456 39.7977C150.041 39.9928 150.529 40.4805 150.919 41.1633C151.016 41.3584 151.211 41.651 151.211 41.9436L148.968 43.1142C148.968 42.9191 148.87 42.724 148.773 42.5289C148.675 42.3338 148.578 42.2363 148.48 42.0412C147.992 41.2608 147.505 40.8707 146.822 40.7731C146.139 40.6756 145.359 40.8707 144.383 41.4559L139.018 44.6749L137.75 42.4314L148.09 36.2861Z" fill="#F7F6FB"/>
<path d="M143.31 48.8692C144.091 47.6987 145.261 46.7232 147.017 46.0404C148.773 45.3576 150.333 45.1625 151.699 45.4552C153.065 45.7478 154.04 46.6257 154.528 47.9913C154.918 48.8692 155.016 49.7471 154.723 50.4299C154.43 51.1127 154.138 51.6979 153.748 52.1857L153.845 52.3807L155.698 51.6004L156.674 54.039L145.554 58.526L144.578 56.0874L146.627 55.3071L146.529 55.112C145.846 55.112 145.164 54.9169 144.481 54.5267C143.798 54.1365 143.31 53.5513 142.92 52.6734C142.432 51.3078 142.53 50.0397 143.31 48.8692ZM147.31 54.1365C148.188 54.3316 149.163 54.1365 150.138 53.7464C151.114 53.3562 151.894 52.7709 152.479 51.9906C152.967 51.3078 153.065 50.4299 152.772 49.6495C152.382 48.7716 151.797 48.2839 150.919 48.0888C150.041 47.9913 149.065 48.0888 148.09 48.479C147.115 48.8692 146.334 49.4544 145.749 50.2348C145.261 50.9176 145.164 51.7955 145.456 52.6734C145.749 53.4537 146.432 53.9414 147.31 54.1365Z" fill="#F7F6FB"/>
<path d="M157.649 58.0382L158.234 60.5743L146.627 63.5006L146.042 60.9645L157.649 58.0382ZM160.185 57.648C160.38 57.2578 160.771 57.0627 161.161 56.9652C161.649 56.8677 162.039 56.8677 162.331 57.0627C162.721 57.2578 162.917 57.5505 163.014 58.0382C163.112 58.5259 163.014 58.8185 162.819 59.2087C162.624 59.5989 162.234 59.794 161.844 59.8915C161.453 59.989 161.063 59.989 160.673 59.794C160.283 59.5989 160.088 59.3062 159.99 58.8185C159.893 58.3308 159.99 57.9406 160.185 57.648Z" fill="#F7F6FB"/>
<path d="M147.895 67.5001C148.188 66.8173 148.578 66.2321 149.163 65.7444C149.748 65.2567 150.333 65.0616 151.016 64.964H151.114L151.406 67.5001H151.309C150.821 67.5977 150.431 67.7928 150.138 68.183C149.846 68.5731 149.651 69.1584 149.748 69.7436C149.846 70.3289 150.041 70.7191 150.333 71.0117C150.626 71.3043 151.016 71.4019 151.504 71.4019C151.894 71.3043 152.187 71.2068 152.479 70.8166C152.675 70.524 152.772 70.1338 152.772 69.6461L152.87 68.2805C152.87 67.4026 153.162 66.6223 153.552 65.8419C154.04 65.1591 154.723 64.6714 155.796 64.5738C156.869 64.4763 157.844 64.6714 158.527 65.3542C159.21 66.037 159.698 67.0124 159.893 68.183C159.99 69.0608 159.893 69.8412 159.698 70.524C159.405 71.2068 159.015 71.7921 158.527 72.1822C158.039 72.5724 157.454 72.865 156.771 72.9626H156.674L156.381 70.4264H156.479C156.869 70.3289 157.259 70.1338 157.552 69.8412C157.844 69.5486 158.039 69.0608 157.942 68.378C157.844 67.8903 157.649 67.5001 157.357 67.2075C157.064 66.9149 156.674 66.8173 156.186 66.9149C155.796 67.0124 155.503 67.11 155.308 67.5001C155.113 67.8903 155.016 68.183 154.918 68.6707L154.82 70.1338C154.723 71.1093 154.43 71.8896 154.04 72.5724C153.552 73.2552 152.87 73.6454 151.894 73.8405C151.114 73.938 150.529 73.8405 149.846 73.5478C149.163 73.2552 148.773 72.7675 148.383 72.1822C147.992 71.597 147.7 70.8166 147.602 70.0363C147.602 69.0608 147.602 68.2805 147.895 67.5001Z" fill="#F7F6FB"/>
<path d="M81.5654 107.59C74.7374 107.59 66.5437 102.128 64.6904 92.9589C64.5929 92.3737 64.788 91.886 65.1781 91.4958C65.5683 91.1056 66.1536 91.1056 66.7388 91.3007C67.4216 91.5933 67.9093 91.8859 68.4946 92.1786C69.9577 92.9589 70.9332 93.4466 72.2988 93.4466C76.0054 93.4466 78.7367 92.3737 81.3703 91.3007C84.004 90.2277 86.6377 89.1547 90.1492 89.2523C95.319 89.4474 98.2453 90.6179 99.3183 91.6909C99.6109 91.9835 99.806 92.4712 99.7085 92.9589C97.7576 103.006 88.9787 107.59 81.5654 107.59ZM68.4946 95.3975C71.0307 101.25 76.6882 104.567 81.5654 104.567C87.5155 104.567 94.6362 101.055 96.4895 93.2516C95.6116 92.8614 93.6608 92.1786 89.9541 92.081C87.1254 91.8859 84.8819 92.8614 82.4433 93.9344C79.7121 95.1049 76.5907 96.3729 72.2988 96.3729C70.8356 96.2754 69.6651 95.8852 68.4946 95.3975Z" fill="#F7F6FB"/>
<path d="M66.1536 94.0318C65.4708 94.0318 64.8855 93.5441 64.6904 92.8613C64.3978 91.5933 64.3002 90.2276 64.3002 88.9596C64.3002 80.5709 71.2258 75.1084 75.6153 73.06V65.0615H73.6644C72.8841 65.0615 72.2013 64.3787 72.2013 63.5983C72.2013 62.818 72.8841 62.1352 73.6644 62.1352H80.9802C81.5654 60.1843 82.6384 57.6482 84.2966 55.4047C83.8089 53.3563 83.8089 50.625 85.077 48.4791C86.0524 46.7233 87.6131 45.5528 89.7591 45.0651C92.0026 44.3823 94.3436 44.0896 96.1969 43.8946C97.1723 43.797 98.538 43.6019 98.8306 43.5044C99.4158 43.2117 100.099 43.3093 100.684 43.6995C101.854 44.6749 102.245 47.9914 101.367 50.9177C100.586 53.6489 98.1478 58.4285 90.4419 59.4039C89.6615 59.5015 88.8812 58.9162 88.7836 58.1359C88.6861 57.3555 89.2713 56.5752 90.0517 56.4776C93.9534 55.9899 96.5871 54.3317 97.9527 51.6005C98.9281 49.6496 99.0257 47.6012 98.8306 46.4307C98.2453 46.5282 97.465 46.6258 96.5871 46.7233C94.8313 46.9184 92.6854 47.211 90.5394 47.7963C89.1738 48.1865 88.2959 48.7717 87.7106 49.8447C87.3205 50.625 87.1254 51.5029 87.0278 52.4784C88.7836 50.9177 90.7345 49.9422 92.8804 49.4545C93.6608 49.2594 94.4411 49.7472 94.6362 50.5275C94.8313 51.3078 94.3436 52.0882 93.5632 52.2833C91.1247 52.8685 88.9787 54.2341 87.1254 56.5752C85.7598 58.331 84.7843 60.3794 84.1991 62.0376H90.7345C91.5148 62.0376 92.1976 62.7204 92.1976 63.5008C92.1976 64.2811 91.5148 64.9639 90.7345 64.9639H88.7836V72.8649C93.1731 74.4256 100.099 79.2052 100.099 88.862C100.099 90.2276 100.001 91.4957 99.7085 92.7638C99.6109 93.5441 98.8306 94.1294 98.0502 93.9343C97.2699 93.8368 96.6846 93.0564 96.8797 92.2761C97.0748 91.2031 97.1723 90.0326 97.1723 88.862C97.1723 80.1807 90.5394 76.279 87.0278 75.4011C86.345 75.206 85.9549 74.6207 85.9549 73.9379V72.8649H84.8819C84.1015 72.8649 83.4187 72.1821 83.4187 71.4018C83.4187 70.6214 84.1015 69.9386 84.8819 69.9386H85.9549V68.9632H84.8819C84.1015 68.9632 83.4187 68.2804 83.4187 67.5C83.4187 66.7197 84.1015 66.0369 84.8819 66.0369H85.9549V65.0615H82.3458C82.3458 65.0615 82.3458 65.0615 82.2482 65.0615H78.6391V66.0369H80.0047C80.7851 66.0369 81.4679 66.7197 81.4679 67.5C81.4679 68.2804 80.7851 68.9632 80.0047 68.9632H78.6391V70.4263H80.0047C80.7851 70.4263 81.4679 71.1091 81.4679 71.8895C81.4679 72.6698 80.7851 73.3526 80.0047 73.3526H78.6391V74.0355C78.6391 74.6207 78.2489 75.206 77.7612 75.4011C74.1521 76.8642 67.4216 81.4487 67.4216 88.9596C67.4216 90.1301 67.5192 91.2031 67.7143 92.2761C67.9093 93.0564 67.3241 93.8368 66.5437 94.0318C66.3486 94.0318 66.2511 94.0318 66.1536 94.0318ZM76.7858 60.2818C75.03 60.2818 73.0791 60.0867 71.616 59.3064C68.8848 57.9408 67.5192 54.3317 67.129 52.3808C66.9339 51.6005 67.5192 50.8201 68.202 50.7226C70.2504 50.2349 74.2497 49.9422 76.8833 51.5029C79.517 53.0636 80.8826 56.5752 81.2728 58.331C81.3703 58.7211 81.2728 59.1113 81.0777 59.4039C80.8826 59.6966 80.4924 59.9892 80.1023 59.9892C79.3219 60.1843 78.0539 60.2818 76.7858 60.2818ZM70.4455 53.2587C70.9332 54.6243 71.8111 56.0875 72.8841 56.6727C74.1521 57.258 76.2005 57.3555 77.9563 57.258C77.4686 55.9899 76.5907 54.5268 75.4202 53.844C74.1521 53.1612 72.1037 53.0636 70.4455 53.2587Z" fill="#F7F6FB"/>
<path d="M98.1478 92.5686C96.392 102.03 88.1008 106.03 81.5654 106.03C75.1275 106.03 67.8118 100.86 66.1536 92.5686C68.5921 93.7391 70.0553 94.8121 72.2988 94.8121C80.1998 94.8121 83.6138 90.3251 90.0517 90.6177C95.2215 90.8128 97.5625 92.0809 98.1478 92.5686Z" fill="#F7F6FB"/>
<path d="M73.2742 91.8859C71.4209 91.8859 69.9577 90.4227 69.9577 88.5694C69.9577 86.7161 71.4209 85.2529 73.2742 85.2529C75.1275 85.2529 76.5907 86.7161 76.5907 88.5694C76.5907 90.4227 75.1275 91.8859 73.2742 91.8859ZM73.2742 88.1792C73.0791 88.1792 72.884 88.3743 72.884 88.5694C72.884 88.7645 73.0791 88.9596 73.2742 88.9596C73.4693 88.9596 73.6644 88.7645 73.6644 88.5694C73.6644 88.3743 73.4693 88.1792 73.2742 88.1792Z" fill="#F7F6FB"/>
<path d="M86.4426 89.4474C84.5893 89.4474 83.1261 87.9843 83.1261 86.1309C83.1261 84.2776 84.5893 82.8145 86.4426 82.8145C88.2959 82.8145 89.7591 84.2776 89.7591 86.1309C89.7591 87.9843 88.1984 89.4474 86.4426 89.4474ZM86.4426 85.6432C86.2475 85.6432 86.0524 85.8383 86.0524 86.0334C86.0524 86.2285 86.2475 86.4236 86.4426 86.4236C86.6377 86.4236 86.8328 86.2285 86.8328 86.0334C86.8328 85.8383 86.6377 85.6432 86.4426 85.6432Z" fill="#F7F6FB"/>
<path d="M98.2453 72.475C95.7092 72.475 93.6608 70.4266 93.6608 67.8904C93.6608 65.3543 95.7092 63.3059 98.2453 63.3059C100.781 63.3059 102.83 65.3543 102.83 67.8904C102.83 70.4266 100.781 72.475 98.2453 72.475ZM98.2453 66.2322C97.3674 66.2322 96.5871 67.0126 96.5871 67.8904C96.5871 68.7683 97.3674 69.5487 98.2453 69.5487C99.1232 69.5487 99.9036 68.7683 99.9036 67.8904C99.9036 67.0126 99.2208 66.2322 98.2453 66.2322Z" fill="#F7F6FB"/>
<path d="M65.7634 71.8895C63.2273 71.8895 61.1789 69.8411 61.1789 67.305C61.1789 64.7689 63.2273 62.7205 65.7634 62.7205C68.2995 62.7205 70.3479 64.7689 70.3479 67.305C70.3479 69.8411 68.2995 71.8895 65.7634 71.8895ZM65.7634 65.6468C64.8855 65.6468 64.1051 66.4271 64.1051 67.305C64.1051 68.1829 64.8855 68.9632 65.7634 68.9632C66.6413 68.9632 67.4216 68.1829 67.4216 67.305C67.4216 66.4271 66.6413 65.6468 65.7634 65.6468Z" fill="#F7F6FB"/>
<path d="M56.0091 63.7937C53.9606 63.7937 52.3999 62.1354 52.3999 60.1845C52.3999 58.2337 54.0582 56.5754 56.0091 56.5754C57.9599 56.5754 59.6182 58.2337 59.6182 60.1845C59.6182 62.1354 58.0575 63.7937 56.0091 63.7937ZM56.0091 59.4042C55.6189 59.4042 55.3262 59.6968 55.3262 60.087C55.3262 60.4772 55.6189 60.7698 56.0091 60.7698C56.3992 60.7698 56.6919 60.4772 56.6919 60.087C56.6919 59.6968 56.3992 59.4042 56.0091 59.4042Z" fill="#F7F6FB"/>
</svg>
