<svg width="138" height="144" viewBox="0 0 138 144" fill="none" xmlns="http://www.w3.org/2000/svg">
<path d="M31.7867 127.751C31.2306 127.751 30.6745 127.751 30.6745 127.191C19.5526 116.545 13.4355 101.977 13.4355 86.288C13.4355 54.9107 38.4599 29.6968 69.6012 29.6968C80.167 29.6968 90.7329 32.4983 99.6304 38.6617C100.743 39.222 100.743 40.3427 100.186 41.4633C99.6304 42.5839 98.5182 42.5839 97.406 42.0236C89.0646 36.4205 79.0549 33.6189 69.6012 33.6189C40.6842 33.6189 17.3282 57.1519 17.3282 86.288C17.3282 100.296 22.3331 113.183 32.3428 122.708L46.8013 108.7C47.3574 108.14 49.0257 108.14 49.5818 108.7C50.1379 109.261 50.1379 110.942 49.5818 111.502L33.455 127.191C32.8989 127.191 32.3428 127.751 31.7867 127.751Z" fill="#F7F6FB"/>
<path d="M71.8256 144C61.2598 144 50.694 141.198 41.7964 135.035C40.6842 134.475 40.6842 133.354 41.2403 132.234C41.7964 131.113 42.9086 131.113 44.0208 131.673C52.3623 137.276 62.372 140.078 71.8256 140.078C100.743 140.078 124.099 116.545 124.099 87.4088C124.099 73.401 119.094 60.5139 109.084 50.9886L94.6255 64.9964C94.0694 65.5567 92.4012 65.5567 91.8451 64.9964C91.289 64.4361 91.289 62.7551 91.8451 62.1948L107.416 46.5062C107.972 45.9459 109.64 45.9459 110.196 46.5062C121.318 57.1521 127.435 71.7201 127.435 87.4088C127.991 118.786 102.411 144 71.8256 144Z" fill="#F7F6FB"/>
<path d="M71.2694 50.9886C74.0499 53.7901 80.723 64.436 71.2694 75.0819C70.7133 75.6422 70.1572 75.6422 69.6011 75.0819C67.3767 72.2803 60.7036 62.7551 69.6011 50.9886C70.1572 50.4283 70.7133 50.4283 71.2694 50.9886Z" fill="#F7F6FB"/>
<path d="M90.1768 70.5994C89.6207 74.5215 87.3963 86.8484 72.9378 87.4087C72.3817 87.4087 71.8256 86.8483 71.8256 86.288C72.3817 82.3659 74.6061 71.1597 88.5085 69.4788C89.6207 69.4788 90.1768 70.0391 90.1768 70.5994Z" fill="#F7F6FB"/>
<path d="M90.1767 87.9697C89.6206 91.8919 87.3962 103.658 73.4938 104.779C72.9377 104.779 72.3816 104.219 72.3816 103.658C72.9377 99.7362 75.1621 89.0904 89.0645 86.8491C89.6206 86.8491 90.1767 87.4094 90.1767 87.9697Z" fill="#F7F6FB"/>
<path d="M90.1768 104.779C89.6207 108.701 87.3963 121.028 72.9378 121.588C72.3817 121.588 71.8256 121.028 71.8256 120.467C72.3817 116.545 74.6061 105.339 89.0646 103.658C89.6207 103.658 90.1768 104.218 90.1768 104.779Z" fill="#F7F6FB"/>
<path d="M51.25 70.5991C51.8061 75.0816 54.0305 86.2878 67.9329 87.4084C68.489 87.4084 69.6012 86.8481 69.0451 85.7275C68.489 81.8053 66.2646 71.1594 52.3622 68.9182C51.8061 69.4785 51.25 70.0388 51.25 70.5991Z" fill="#F7F6FB"/>
<path d="M51.25 87.9697C51.8061 91.8919 54.0305 104.219 68.489 104.779C69.0451 104.779 69.6012 104.219 69.6012 103.658C69.0451 99.7362 66.8207 88.53 52.9183 86.8491C51.8061 86.8491 51.25 87.4094 51.25 87.9697Z" fill="#F7F6FB"/>
<path d="M51.25 104.779C51.8061 108.701 54.0305 121.028 68.489 121.588C69.0451 121.588 69.6012 121.028 69.6012 120.467C69.0451 116.545 66.8207 105.339 52.3622 103.658C51.8061 103.658 51.25 104.218 51.25 104.779Z" fill="#F7F6FB"/>
<path d="M14.5477 49.8679C13.4355 50.4282 12.3233 50.4282 11.2111 50.4282C10.099 50.4282 8.98677 49.8679 8.43067 49.3076L10.6551 46.506C11.2111 46.506 11.2111 46.506 12.3233 46.506C12.8794 46.506 13.4355 46.506 13.9916 46.506C14.5477 46.506 15.1038 45.9457 15.6599 45.3854C16.216 44.8251 16.216 43.7045 16.216 43.1442C16.216 42.5839 15.6599 41.4632 15.1038 40.9029C14.5477 40.3426 13.9916 40.3426 13.4355 40.3426C12.3233 40.9029 11.7672 40.9029 11.2111 41.4632L9.54286 43.1442C8.43067 43.7045 7.87457 44.2648 6.20629 44.8251C5.0941 45.3854 3.9819 44.8251 2.31362 43.7045C1.20142 43.1442 0.645329 42.0235 0.645329 41.4632C0.0892334 40.3426 0.0892334 39.222 0.0892334 38.6617C0.0892334 37.5411 0.645329 36.4205 1.20142 35.8601C2.31362 34.1792 3.42581 33.6189 4.538 33.0586C5.65019 32.4983 6.20629 32.4983 7.31848 32.4983C8.43067 32.4983 8.98677 33.0586 10.099 33.6189L8.43067 36.4205C7.87457 36.4205 7.87457 35.8601 7.31848 35.8601C6.76238 35.8601 6.20629 35.8601 5.65019 35.8601C5.0941 35.8601 4.538 36.4205 3.9819 36.9808C3.42581 38.1014 2.86971 38.6617 3.42581 39.222C3.42581 39.7823 3.9819 40.3426 4.538 40.9029C5.0941 41.4632 5.65019 42.0235 6.20629 41.4632C6.76238 41.4632 7.31848 40.9029 7.87457 40.3426L9.54286 39.222C10.6551 38.1014 11.7672 37.5411 12.8794 37.5411C13.9916 36.9808 15.6599 37.5411 16.7721 38.6617C17.8843 39.222 18.4404 39.7823 18.9965 40.9029C19.5526 42.0235 19.5526 43.1442 18.9965 44.2648C18.9965 45.3854 18.4404 46.506 17.3282 47.6266C16.7721 48.187 15.6599 49.3076 14.5477 49.8679Z" fill="#F7F6FB"/>
<path d="M24.0014 38.101C22.8892 38.101 21.777 38.101 20.6648 37.5407C19.5526 36.9804 18.4404 36.4201 17.3282 35.2995C16.7721 34.1788 16.216 33.0582 15.6599 31.9376C15.1038 30.817 15.1038 29.6964 15.6599 28.5757C15.6599 27.4551 16.7721 26.3345 17.8843 25.2139C18.9965 23.533 20.6648 23.533 22.3331 23.533C24.0014 23.533 25.6697 24.6536 27.3379 26.8948L27.894 27.4551L20.6648 33.6185C21.2209 34.7392 21.777 34.7392 22.3331 35.2995C22.8892 35.2995 23.4453 35.8598 24.0014 35.2995C24.5575 35.2995 25.1136 34.7392 25.6697 34.7392C26.2257 34.1788 26.7818 33.6185 26.7818 33.0582C26.7818 32.4979 26.7818 31.9376 26.7818 31.3773L29.0062 29.1361C29.5623 30.2567 30.1184 31.9376 29.5623 33.0582C29.5623 34.1788 28.4501 35.8598 27.3379 36.9804C26.2257 37.5407 25.1136 38.101 24.0014 38.101ZM24.0014 28.0154C23.4453 26.8948 22.3331 26.3345 21.777 26.3345C20.6648 26.3345 20.1087 26.3345 19.5526 26.8948C18.4404 27.4551 17.8843 28.5757 17.8843 29.1361C17.8843 30.2567 18.4404 30.817 18.9965 31.9376L24.0014 28.0154Z" fill="#F7F6FB"/>
<path d="M26.7818 17.37L29.5623 16.2494L30.6745 18.4906C30.6745 18.4906 30.6745 17.9303 30.6745 17.37C30.6745 16.8097 31.2306 16.2494 31.2306 15.6891C32.3428 15.1288 32.8989 14.5685 33.4549 14.0082C34.5671 13.4479 35.1232 13.4479 35.6793 13.4479C36.2354 13.4479 36.7915 14.0082 37.3476 14.0082C38.4598 14.5685 38.4598 15.1288 39.0159 15.1288C39.0159 14.5685 39.0159 13.4479 39.572 12.3272C40.1281 11.2066 40.6842 10.6463 41.7964 10.086C42.9086 9.52569 44.0208 9.52569 44.5769 10.086C45.6891 10.086 46.2451 10.6463 46.8012 11.7669C47.3573 12.8876 47.9134 13.4479 48.4695 14.0082L52.3622 22.4128L49.5817 23.5334L46.2452 15.1288C45.6891 14.5685 45.133 13.4479 44.0208 13.4479C43.4647 12.8876 42.3525 13.4479 41.7964 13.4479C41.2403 13.4479 40.6842 14.5685 40.1281 15.1288C39.572 15.6891 40.1281 16.8097 40.1281 17.9303L43.4647 25.7747L41.2403 26.8953L37.9037 19.051C37.3476 17.9303 36.7915 17.37 35.6793 17.37C34.5671 17.37 34.5671 16.8097 33.4549 17.37C32.8989 17.9303 32.3428 18.4906 32.3428 19.051C31.7867 19.6113 32.3428 20.7319 32.3428 21.8525L35.6793 29.6968L33.4549 30.8175L26.7818 17.37Z" fill="#F7F6FB"/>
<path d="M62.9281 19.6113C61.8159 18.4907 60.7037 17.3701 60.1476 16.2495C59.5915 14.5685 59.0354 12.8876 59.0354 11.2067C59.0354 9.52574 59.0354 7.84481 59.5915 6.16389C60.1476 4.48296 61.2598 3.36234 62.372 2.24172C63.4842 1.1211 65.1525 0.560791 66.8207 0.560791C69.0451 0.560791 70.7134 1.1211 71.8256 2.24172C72.9378 3.36234 74.05 5.04327 74.6061 6.7242H71.2695C70.7134 5.60358 70.1573 5.04327 69.6012 4.48296C69.0451 3.92265 67.9329 3.36234 66.8207 3.92265C65.1525 3.92265 64.0403 4.48296 62.9281 6.16389C62.372 7.28451 61.8159 9.52574 61.8159 11.2067C61.8159 13.4479 62.372 15.1288 63.4842 16.2495C64.5964 17.3701 65.7085 17.9304 67.3768 17.9304C69.0451 17.9304 70.1573 17.3701 70.7134 16.2495C71.2695 15.1288 72.3817 14.0082 72.3817 12.8876V12.3273H67.9329V10.0861L75.1622 9.52574L75.7183 20.1716H73.4939V17.3701C72.9378 17.9304 72.9378 19.051 71.8256 19.6113C71.2695 20.1716 69.6012 20.7319 67.9329 20.7319C66.2646 20.7319 64.5964 20.1716 62.9281 19.6113Z" fill="#F7F6FB"/>
<path d="M79.6109 20.1711C79.0548 19.6108 79.0548 19.0505 78.4987 18.4902C78.4987 17.9299 78.4987 17.3696 78.4987 16.249L81.2792 0L84.6158 0.560309L82.3914 16.249C82.3914 16.8093 82.3914 17.3696 82.3914 17.9299C82.3914 18.4902 82.3914 18.4902 82.9475 19.0505C82.9475 19.0505 83.5036 19.6108 84.0597 19.6108H84.6158L84.0597 21.8521C83.5036 21.8521 82.9475 21.8521 81.8353 21.8521C80.7231 21.2918 80.167 20.7314 79.6109 20.1711Z" fill="#F7F6FB"/>
<path d="M97.406 25.7747L94.6256 24.6541L95.1817 22.4128C94.6256 22.9731 94.0695 23.5334 92.9573 23.5334C91.8451 24.0938 91.289 23.5334 90.1768 23.5334C89.0646 23.5334 88.5085 22.4128 87.9524 21.8525C87.3963 21.2922 87.3963 20.1716 87.3963 19.051C87.3963 17.9304 87.3963 17.37 87.9524 16.2494L90.7329 7.84478L93.5134 8.9654L90.7329 16.8097C90.1768 17.9304 90.1768 19.051 90.7329 19.6113C91.289 20.1716 91.8451 20.7319 92.4012 21.2922C93.5134 21.8525 94.0695 21.2922 95.1817 20.7319C95.7377 20.1716 96.2938 19.6113 96.8499 18.4907L99.6304 10.6463L102.411 11.7669L97.406 25.7747ZM95.7377 7.28447L100.187 3.3623L102.967 4.48292L97.9621 8.40509L95.7377 7.28447Z" fill="#F7F6FB"/>
<path d="M109.64 19.0506L106.304 25.214C105.747 25.7743 105.747 26.3347 105.747 26.3347C105.747 26.895 105.747 26.895 105.747 27.4553C105.747 27.4553 106.304 28.0156 106.86 28.0156C106.86 28.0156 107.416 28.5759 107.972 28.5759L106.86 30.8171C106.86 30.8171 106.304 30.8171 105.747 30.2568C105.191 30.2568 104.635 29.6965 104.635 29.6965C103.523 29.1362 102.967 28.5759 102.411 28.0156C101.855 27.4553 101.855 26.895 102.411 26.3347C102.411 25.7743 102.967 25.214 103.523 24.0934L107.416 17.3697L105.191 16.2491L106.304 14.0078L108.528 15.1285L110.752 11.2063L113.533 12.8872L111.308 16.8094L114.089 18.4903L112.977 20.7316L109.64 19.0506Z" fill="#F7F6FB"/>
<path d="M110.752 33.0587C110.196 31.9381 110.752 30.8175 110.752 29.6969C111.308 28.0159 111.865 26.8953 112.421 25.7747C113.533 24.6541 114.089 24.0938 115.201 23.5335C116.313 22.9731 117.425 22.9731 118.538 22.9731C119.65 22.9731 120.762 23.5335 121.874 24.6541C123.543 25.7747 124.099 27.4556 124.099 29.1365C124.099 30.8175 123.543 32.4984 121.874 34.7396L121.318 35.3L114.089 29.1365C113.533 29.6969 113.533 30.2572 112.977 30.8175C112.977 31.3778 112.977 31.9381 112.977 32.4984C112.977 33.0587 113.533 33.619 114.089 34.1793C114.645 34.7396 115.201 34.7396 115.757 34.7396C116.313 34.7396 116.869 34.7396 117.425 34.1793L119.65 36.4206C118.538 37.5412 117.425 37.5412 115.757 37.5412C114.645 37.5412 112.977 36.9809 111.865 35.8603C111.865 35.3 111.308 34.1793 110.752 33.0587ZM120.762 31.3778C121.874 30.2572 122.43 29.1365 122.43 28.5762C122.43 27.4556 121.874 26.8953 121.318 26.335C120.762 25.7747 119.65 25.2144 118.538 25.7747C117.425 25.7747 116.869 26.335 115.757 27.4556L120.762 31.3778Z" fill="#F7F6FB"/>
<path d="M130.772 32.4983L132.996 35.2998L131.328 36.9808C131.884 36.9808 132.996 36.9808 134.108 36.9808C135.221 36.9808 135.777 37.5411 136.333 38.6617C137.445 40.3426 138.001 41.4632 137.445 43.1442C136.889 44.2648 136.333 45.9457 134.664 46.506L127.435 52.1091L125.767 49.3076L132.44 44.2648C133.552 43.7045 134.108 42.5839 134.108 42.0236C134.108 40.9029 134.108 40.3426 133.552 39.7823C132.996 39.222 131.884 38.6617 131.328 38.6617C130.216 38.6617 129.66 39.222 128.547 39.7823L121.874 44.8251L119.65 42.0236L130.772 32.4983Z" fill="#F7F6FB"/>
</svg>
