<svg width="145" height="143" viewBox="0 0 145 143" fill="none" xmlns="http://www.w3.org/2000/svg">
<path d="M35.2627 126.176C34.7019 126.176 34.1411 126.176 34.1411 125.616C22.9255 114.961 16.7568 100.38 16.7568 84.6783C16.7568 53.2744 41.9921 28.0391 73.3961 28.0391C84.051 28.0391 94.7059 30.843 103.678 37.0116C104.8 37.5724 104.8 38.694 104.239 39.8155C103.678 40.9371 102.557 40.9371 101.435 40.3763C93.0235 34.7685 82.9294 31.9646 73.3961 31.9646C44.2353 31.9646 20.6823 55.5175 20.6823 84.6783C20.6823 98.6979 25.7294 111.596 35.8235 121.129L50.4039 107.11C50.9647 106.549 52.647 106.549 53.2078 107.11C53.7686 107.67 53.7686 109.353 53.2078 109.914L37.5059 125.616C36.3843 126.176 35.8235 126.176 35.2627 126.176Z" fill="#F7F6FB"/>
<path d="M75.0785 143C64.4236 143 53.7687 140.196 44.7961 134.027C43.6746 133.466 43.6746 132.345 44.2354 131.223C44.7961 130.102 45.9177 130.102 47.0393 130.662C55.451 136.27 65.5452 139.074 75.0785 139.074C104.239 139.074 127.792 115.521 127.792 86.3605C127.792 72.3409 122.745 59.4429 112.651 49.9095L98.0706 63.9292C97.5099 64.4899 95.8275 64.4899 95.2667 63.9292C94.7059 63.3684 94.7059 61.686 95.2667 61.1252L110.969 45.4233C111.529 44.8625 113.212 44.8625 113.773 45.4233C124.988 56.0782 131.157 70.6586 131.157 86.3605C131.718 117.764 106.482 143 75.0785 143Z" fill="#F7F6FB"/>
<path d="M71.1529 82.4348L56.0117 81.874C54.8901 81.874 54.3293 80.7525 54.3293 79.6309L54.8901 64.4897C54.8901 63.3682 56.0117 62.8074 57.1333 62.8074L72.2745 63.3682C73.396 63.3682 73.9568 64.4897 73.9568 65.6113L73.396 80.7525C72.8352 81.874 72.2745 82.4348 71.1529 82.4348Z" fill="#F7F6FB"/>
<path d="M73.9568 105.427L58.8157 109.353C57.6941 109.353 57.1333 108.792 56.5725 108.231L52.647 93.0898C52.647 91.9682 53.2078 91.4074 53.7686 90.8466L68.9098 86.9211C70.0313 86.9211 70.5921 87.4819 71.1529 88.0427L75.0784 103.184C75.0784 104.305 74.5176 105.427 73.9568 105.427Z" fill="#F7F6FB"/>
<path d="M96.3882 97.0151L78.4431 90.2857C77.3216 89.7249 76.7608 88.6033 77.3216 87.4817L84.051 69.5366C84.6118 68.4151 85.7333 67.8543 86.8549 68.4151L104.8 75.1445C105.922 75.7053 106.482 76.8268 105.922 77.9484L99.1922 95.8935C98.6314 97.0151 97.5098 97.5759 96.3882 97.0151Z" fill="#F7F6FB"/>
<path d="M15.6353 50.4703C14.5138 51.031 13.3922 51.5918 12.2706 51.031C11.149 51.031 10.0275 50.4703 9.46669 49.9095L11.7098 47.1055C11.7098 47.6663 12.2706 47.6663 12.8314 47.6663C13.3922 47.6663 13.953 47.6663 14.5138 47.6663C15.0745 47.6663 15.6353 47.1056 16.1961 46.5448C16.7569 45.4232 16.7569 44.8624 16.7569 43.7408C16.7569 43.1801 16.1961 42.0585 15.6353 42.0585C15.0745 41.4977 14.5138 41.4977 13.953 41.4977C12.8314 41.4977 12.2706 42.0585 11.7098 42.6193L10.0275 44.3016C9.46669 44.8624 8.34512 45.4232 7.22355 45.984C6.10198 46.5448 4.41963 45.984 3.29806 44.8624C2.17649 44.3016 1.05493 43.7408 1.05493 42.6193C1.05493 41.4977 0.494141 40.9369 0.494141 39.8154C0.494141 38.6938 1.05493 37.5722 1.61571 37.0114C2.17649 35.8899 3.29806 34.7683 4.41963 34.7683C5.5412 33.6467 6.66277 33.6467 7.78434 33.6467C8.90591 33.6467 10.0275 34.2075 10.5883 34.7683L8.90591 37.5722C8.34512 37.5722 8.34512 37.0114 7.78434 37.0114C7.22355 37.0114 6.66277 37.0114 6.10198 37.0114C5.5412 37.0114 4.98042 37.5722 4.41963 38.133C3.85885 39.2546 3.29806 39.8154 3.29806 40.9369C3.29806 41.4977 3.85885 42.0585 4.41963 42.6193C5.5412 43.1801 6.10198 43.1801 6.66277 42.6193C7.22355 42.6193 7.78434 42.0585 8.34512 41.4977L10.0275 39.8154C11.149 39.2546 12.2706 38.6938 13.3922 38.133C14.5138 37.5722 16.1961 38.133 17.3177 39.2546C18.4392 39.8154 19 40.9369 19.5608 41.4977C20.1216 42.6193 20.1216 43.7408 20.1216 44.8624C20.1216 45.984 19.5608 47.1056 19 48.2271C17.8785 49.3487 16.7569 49.9095 15.6353 50.4703Z" fill="#F7F6FB"/>
<path d="M24.6079 38.6942C23.4863 38.6942 22.3647 38.6942 21.2432 38.1334C20.1216 37.5726 19 37.0118 17.8785 35.8902C17.3177 35.3295 16.1961 34.2079 16.1961 33.0863C15.6353 31.404 15.6353 30.2824 15.6353 29.1608C15.6353 28.0393 16.7569 26.9177 17.8785 25.7961C19.5608 24.6746 20.6824 24.1138 22.3647 24.1138C24.0471 24.1138 25.7294 25.2353 27.4118 26.9177L27.9726 28.0393L20.6824 34.7687C21.2432 35.3294 21.8039 35.8902 22.9255 35.8902C23.4863 35.8902 24.0471 36.451 24.6079 35.8902C25.1686 35.8902 25.7294 35.3295 26.2902 35.3295C26.851 34.7687 26.851 34.2079 27.4118 33.6471C27.4118 33.0863 27.4118 32.5255 27.4118 31.9647L29.6549 29.7216C30.2157 30.8432 30.2157 31.9647 30.2157 33.6471C30.2157 34.7687 29.0941 36.451 27.9726 37.5726C26.851 38.1334 25.7294 38.6942 24.6079 38.6942ZM24.6079 28.6C23.4863 27.4785 22.3647 26.9177 21.8039 26.9177C20.6824 26.9177 20.1216 26.9177 19.5608 28.0393C18.4392 28.6 18.4392 29.1608 18.4392 30.2824C18.4392 31.404 19 31.9647 19.5608 33.0863L24.6079 28.6Z" fill="#F7F6FB"/>
<path d="M26.851 17.945L29.6549 16.8234L30.7765 19.0665C30.7765 19.0665 30.7765 18.5058 30.7765 17.945C30.7765 17.3842 30.7765 16.8234 31.3373 16.2626C31.8981 15.7018 32.4589 15.141 33.0196 14.5803C34.1412 14.0195 35.2628 14.0195 35.8236 14.0195C36.3843 14.0195 37.5059 14.5803 37.5059 14.5803C38.0667 15.141 38.0667 15.141 38.6275 15.141C38.6275 14.5803 38.6275 13.4587 39.1883 12.3371C39.7491 11.7763 40.3098 11.2156 41.4314 10.094C42.553 9.5332 43.6745 9.5332 44.2353 9.5332C45.3569 10.094 46.4785 10.6548 47.0392 11.2156C47.6 11.7763 48.1608 12.8979 48.7216 13.4587L52.6471 21.3097L49.8432 22.992L45.9177 15.141C45.3569 14.5803 44.7961 13.4587 44.2353 13.4587C43.6745 13.4587 42.553 13.4587 41.9922 13.4587C40.8706 14.0195 40.3098 14.5803 40.3098 15.141C40.3098 15.7018 40.3098 16.8234 40.8706 17.945L44.7961 25.7959L41.9922 26.9175L38.0667 19.6273C37.5059 18.5058 36.3843 17.945 35.8236 17.3842C35.2628 17.3842 34.1412 17.3842 33.5804 17.3842C33.0196 17.945 32.4589 18.5058 31.8981 19.6273C31.8981 20.1881 31.8981 21.3097 32.4589 22.4312L36.3843 30.2822L33.5804 31.4038L26.851 17.945Z" fill="#F7F6FB"/>
<path d="M70.5922 14.0196L63.8628 14.5804L62.7412 19.6275H59.3765L64.4236 0H67.7883L76.2001 19.0667H72.8354L70.5922 14.0196ZM69.4706 11.7765L66.1059 4.48628L64.4236 12.3373L69.4706 11.7765Z" fill="#F7F6FB"/>
<path d="M85.7334 17.3846C86.2941 16.8238 86.8549 16.2631 86.8549 15.1415L90.2196 15.7023C90.2196 16.8238 89.0981 18.5062 87.9765 19.067C86.8549 20.1886 85.7334 20.1886 84.051 20.1886L83.4902 21.3101H84.051C85.1726 21.3101 85.7334 21.8709 85.7334 22.4317C86.2941 22.9925 86.2941 23.5533 86.2941 24.114C86.2941 24.6748 85.7334 25.7964 85.1726 26.3572C84.6118 26.918 83.4902 26.918 82.9294 26.918C82.3686 26.918 82.3686 26.918 81.8079 26.918C81.2471 26.918 81.2471 26.918 81.2471 26.3572V24.6748C81.8079 24.6748 82.3686 25.2356 82.9294 25.2356C83.4902 25.2356 84.051 25.2356 84.051 25.2356C84.6118 24.6748 84.6118 24.6748 84.6118 24.114C84.6118 23.5533 84.6118 23.5533 84.6118 23.5533L84.051 22.9925L81.8079 22.4317L82.9294 20.1886C81.8079 19.6278 80.6863 19.067 80.1255 18.5062C79.5647 17.3846 79.0039 16.8238 78.4431 15.7023C78.4431 14.5807 77.8824 13.4591 78.4431 12.3376C78.4431 11.216 79.0039 10.0944 79.5647 8.97287C80.1255 7.8513 81.2471 7.29051 82.3686 6.72973C83.4902 6.16895 84.6118 6.16895 86.2941 6.16895C87.9765 6.16895 89.6589 7.29051 90.2196 8.41208C91.3412 9.53365 91.3412 11.216 91.3412 12.8984L87.9765 12.3376C87.9765 11.216 87.9765 10.6552 87.4157 10.0944C86.8549 9.53365 86.2941 8.97287 85.1726 8.97287C84.051 8.97287 82.9294 8.97287 82.3686 10.0944C81.8079 11.216 81.2471 11.7768 81.2471 13.4591C81.2471 14.5807 81.2471 16.2631 81.8079 16.8238C82.3686 17.9454 82.9294 18.5062 84.051 18.5062C84.6118 17.9454 85.1726 17.3846 85.7334 17.3846Z" fill="#F7F6FB"/>
<path d="M103.118 26.3565L100.314 25.2349L100.875 22.431C100.314 22.9918 99.753 23.5525 98.6314 23.5525C97.5098 23.5525 96.949 23.5525 95.8275 23.5525C94.7059 22.9918 94.1451 22.431 93.5843 21.8702C93.0236 20.7486 93.0236 20.1878 93.0236 19.0663C93.0236 17.9447 93.0236 17.3839 93.5843 16.2624L96.9491 7.85059L99.753 8.97216L96.3883 16.8231C95.8275 17.9447 95.8275 19.0663 96.3883 19.6271C96.3883 20.1878 96.949 20.7486 98.0706 21.3094C99.1922 21.8702 99.753 21.8702 100.875 21.3094C101.435 20.7486 101.996 20.1878 102.557 19.0663L105.361 11.2153L108.165 12.3369L103.118 26.3565Z" fill="#F7F6FB"/>
<path d="M107.604 28.0392C107.043 26.9176 107.043 25.2353 107.043 24.1137C107.043 22.9921 107.604 21.8705 108.726 20.749C109.286 19.6274 110.408 18.5058 111.529 17.9451C112.09 17.3843 113.212 16.8235 114.894 16.8235C116.016 16.8235 117.137 17.3843 118.82 17.9451C120.502 19.0666 121.063 20.1882 121.624 21.8705C121.624 23.5529 121.624 24.6745 121.063 26.3568L118.259 24.6745C118.259 23.5529 118.259 22.9921 118.259 22.4313C118.259 21.8705 117.698 20.749 117.137 20.749C116.016 20.1882 114.894 20.1882 114.333 20.1882C112.651 20.749 112.09 21.3098 111.529 22.4313C110.969 23.5529 110.408 24.6745 110.408 25.796C110.408 26.9176 110.969 28.0392 112.09 28.6C112.651 29.1607 113.773 29.1607 114.333 29.1607C114.894 29.1607 116.016 28.6 116.576 28.0392L118.259 29.1607C117.137 30.2823 116.016 31.4039 114.333 31.4039C112.651 31.9647 111.529 31.4039 109.847 30.2823C108.726 29.7215 107.604 29.1607 107.604 28.0392Z" fill="#F7F6FB"/>
<path d="M118.82 34.7687C119.38 33.0864 119.941 31.404 121.623 29.7216C123.306 28.0393 124.988 27.4785 126.671 26.9177C128.353 26.9177 130.035 26.9177 131.157 28.6001C132.278 29.7216 132.278 30.2824 132.278 31.404C132.278 32.5256 132.278 33.0864 131.718 33.6471L133.4 31.9648L135.643 34.2079L124.988 44.302L122.745 42.0589L124.427 40.3765C123.867 40.9373 122.745 40.9373 121.623 40.9373C120.502 40.9373 119.941 40.3765 118.82 39.255C118.82 37.5726 118.259 36.4511 118.82 34.7687ZM125.549 38.6942C126.671 38.6942 127.792 38.1334 128.914 37.0118C130.035 35.8903 130.596 35.3295 130.596 34.2079C130.596 33.0864 130.596 31.9648 130.035 31.404C129.474 30.2824 128.353 30.2824 127.231 30.2824C126.11 30.2824 124.988 30.8432 123.867 31.9648C122.745 33.0864 122.184 33.6471 122.184 34.7687C121.623 35.8903 122.184 37.0118 122.745 37.5726C123.306 38.6942 124.427 39.255 125.549 38.6942Z" fill="#F7F6FB"/>
<path d="M139.569 38.6938L141.251 41.4978L139.569 42.6193C140.129 42.6193 140.69 42.6193 141.812 42.6193C142.373 42.6193 142.933 43.1801 143.494 44.3017C143.494 44.3017 144.055 44.8625 144.055 45.4233L140.69 47.1056V46.5448C140.69 46.5448 140.69 45.984 140.129 45.984C139.569 44.8625 139.008 44.3017 137.886 44.3017C137.326 44.3017 136.204 44.3017 135.082 45.4233L128.914 49.9095L127.231 47.1056L139.569 38.6938Z" fill="#F7F6FB"/>
</svg>
