<svg width="128" height="141" viewBox="0 0 128 141" fill="none" xmlns="http://www.w3.org/2000/svg">
<path d="M30.9453 124.686C30.4597 124.686 29.9742 124.492 29.5858 124.103C18.4184 113.421 12.3007 99.0494 12.3007 83.6094C12.3007 52.7292 37.4515 27.5784 68.3317 27.5784C79.0135 27.5784 89.404 30.5887 98.435 36.318C99.3089 36.9007 99.6003 38.066 99.0176 39.037C98.435 39.911 97.2697 40.2023 96.2986 39.6197C87.9474 34.2788 78.2366 31.4627 68.3317 31.4627C39.5879 31.4627 16.185 54.8656 16.185 83.6094C16.185 97.3015 21.4288 110.12 30.9453 119.928L45.3172 105.847C46.094 105.07 47.3564 105.07 48.0362 105.847C48.8131 106.624 48.8131 107.886 48.0362 108.566L32.3048 124.006C31.9164 124.492 31.4308 124.686 30.9453 124.686Z" fill="#F7F6FB"/>
<path d="M70.468 141C59.7862 141 49.3957 137.989 40.3647 132.26C39.4907 131.678 39.1994 130.512 39.7821 129.541C40.3647 128.667 41.53 128.376 42.5011 128.959C50.8523 134.299 60.5631 137.116 70.468 137.116C99.2118 137.116 122.615 113.713 122.615 84.9688C122.615 71.2767 117.371 58.4585 107.854 48.6507L93.4825 62.7312C92.7056 63.5081 91.4432 63.5081 90.7635 62.7312C90.0837 61.9544 89.9866 60.692 90.7635 60.0122L106.495 44.5721C107.272 43.7953 108.437 43.7953 109.214 44.5721C120.381 55.254 126.499 69.6259 126.499 85.0659C126.499 115.849 101.348 141 70.468 141Z" fill="#F7F6FB"/>
<path d="M12.3978 42.2418L9.48454 26.2191L2.88124 33.2108L0.550659 31.0745L9.77587 21.2666L12.0093 23.403L14.9226 39.5228L21.623 32.434L23.8564 34.5703L14.6312 44.3782L12.3978 42.2418Z" fill="#F7F6FB"/>
<path d="M27.1581 31.1715C25.8957 31.1715 24.8275 30.7831 23.7593 30.1033C22.6912 29.4236 21.8172 28.5496 21.1374 27.4814C20.3606 26.4132 19.8751 25.2479 19.6808 23.9855C19.3895 22.7231 19.4866 21.5579 19.9722 20.3926C20.3606 19.2273 21.2346 18.2562 22.3998 17.4793C23.9536 16.4112 25.6044 16.1198 27.2552 16.5083C28.906 16.8967 30.4598 18.2562 31.8193 20.2955L32.3048 21.0723L24.2449 26.5103L24.342 26.7045C24.7304 27.2872 25.1189 27.6756 25.7015 27.9669C26.2841 28.2583 26.8668 28.4525 27.4494 28.4525C28.0321 28.4525 28.6147 28.2583 29.1974 27.8698C29.78 27.4814 30.2655 26.8988 30.4598 26.3161C30.654 25.7335 30.7511 25.0537 30.5569 24.374L33.1788 22.626C33.6643 23.9855 33.6643 25.345 33.373 26.7045C32.9846 28.0641 32.1106 29.1322 30.7511 30.1033C29.5858 30.7831 28.3234 31.1715 27.1581 31.1715ZM28.5176 20.8781C27.7408 19.8099 26.9639 19.1302 26.0899 18.936C25.216 18.7417 24.4391 18.936 23.6622 19.4215C22.7883 20.0041 22.3027 20.6839 22.2056 21.655C22.1085 22.5289 22.3027 23.5 22.9825 24.4711L28.5176 20.8781Z" fill="#F7F6FB"/>
<path d="M31.8193 12.2356L34.7325 10.9732L35.7036 13.1096L35.8978 13.0125C35.8007 12.3327 35.9949 11.653 36.3833 10.9732C36.7718 10.2935 37.3544 9.80793 38.2284 9.4195C38.5197 9.32239 38.9081 9.22528 39.1994 9.12817L40.3647 12.0414C40.0734 12.0414 39.8792 12.1385 39.685 12.1385C39.4908 12.2356 39.2965 12.2356 39.0052 12.4298C38.0341 12.8183 37.4515 13.498 37.1602 14.2749C36.8689 15.0517 37.0631 16.1199 37.6457 17.3823L40.7532 24.374L37.8399 25.6364L31.8193 12.2356Z" fill="#F7F6FB"/>
<path d="M48.2304 20.5868C47.0651 20.1012 46.1912 19.4215 45.4143 18.4504C44.6375 17.4793 44.1519 16.314 43.8606 14.9545C43.5693 13.6921 43.4722 12.3326 43.6664 11.1673C43.8606 9.90495 44.3461 8.83677 45.2201 7.9628C45.997 7.08883 47.1622 6.40908 48.5218 6.11776C49.8813 5.82644 51.1437 5.82644 52.3089 6.31198C53.4742 6.79751 54.3482 7.47726 55.1251 8.44834C55.9019 9.41941 56.3875 10.5847 56.6788 11.9442C56.9701 13.2066 57.0672 14.5661 56.873 15.7314C56.6788 16.9938 56.1932 18.062 55.4164 18.9359C54.6395 19.8099 53.4742 20.4897 52.1147 20.781C50.561 21.0723 49.2986 20.9752 48.2304 20.5868ZM53.4742 16.1198C53.8627 15.0516 53.8627 13.8864 53.5713 12.5269C53.28 11.1673 52.6974 10.0992 51.9205 9.41941C51.1437 8.64255 50.1726 8.44834 49.1044 8.64255C48.0362 8.93388 47.2594 9.51652 46.968 10.5847C46.5796 11.6529 46.5796 12.8182 46.8709 14.1777C47.1622 15.5372 47.7449 16.6054 48.5218 17.2851C49.2986 18.062 50.2697 18.2562 51.3379 18.062C52.406 17.7707 53.0858 17.188 53.4742 16.1198Z" fill="#F7F6FB"/>
<path d="M67.9432 18.1589C67.1664 17.6734 66.4866 16.9937 66.0982 16.2168C65.7098 15.4399 65.5156 14.6631 65.6127 13.7891V13.5949L68.7201 13.7891V13.9833C68.7201 14.566 68.9143 15.0515 69.3028 15.537C69.6912 16.0226 70.3709 16.3139 71.1478 16.3139C71.8275 16.3139 72.3131 16.2168 72.7986 15.9255C73.187 15.6342 73.4784 15.1486 73.4784 14.566C73.4784 14.0804 73.3813 13.5949 72.9928 13.3036C72.6044 13.0123 72.216 12.818 71.7304 12.7209L70.0796 12.3325C69.0114 12.1383 68.1375 11.6527 67.3606 10.973C66.5837 10.2932 66.1953 9.32217 66.2924 7.96266C66.3895 6.60316 66.8751 5.53498 67.8461 4.85523C68.8172 4.17547 70.0796 3.78704 71.5362 3.88415C72.6044 3.98126 73.5755 4.17547 74.3523 4.66101C75.1292 5.14655 75.7118 5.72919 76.1003 6.40894C76.4887 7.0887 76.6829 7.86556 76.5858 8.64242V8.73952L73.3813 8.64242V8.54531C73.3813 8.05977 73.2842 7.57423 72.8957 7.0887C72.6044 6.60316 72.0218 6.40894 71.2449 6.31184C70.5651 6.31184 70.0796 6.40894 69.6912 6.70027C69.3027 6.99159 69.1085 7.47713 69.0114 7.96266C69.0114 8.4482 69.1085 8.83663 69.497 9.12795C69.8854 9.41927 70.2738 9.7106 70.8565 9.80771L72.6044 10.1961C73.7697 10.4875 74.6437 10.973 75.4205 11.6527C76.1974 12.3325 76.4887 13.3036 76.3916 14.566C76.3916 15.4399 76.1003 16.2168 75.6147 16.8965C75.1292 17.5763 74.4494 18.0618 73.5755 18.3532C72.7015 18.6445 71.8275 18.8387 70.8565 18.7416C69.6912 19.0329 68.7201 18.7416 67.9432 18.1589Z" fill="#F7F6FB"/>
<path d="M80.4701 19.1302C79.6933 18.1591 79.2077 17.0909 79.0135 15.9256C78.8193 14.6632 78.9164 13.4008 79.2077 12.1384C79.4991 10.876 80.0817 9.71074 80.8586 8.73967C81.6354 7.7686 82.6065 6.99174 83.6747 6.60331C84.7429 6.21488 86.1024 6.11777 87.4619 6.5062C88.8214 6.89463 89.8895 7.47727 90.6664 8.44835C91.4433 9.41942 91.9288 10.4876 92.123 11.6529C92.3172 12.9153 92.2201 14.1777 91.9288 15.4401C91.6375 16.7025 91.0548 17.8678 90.278 18.936C89.5011 19.907 88.53 20.6839 87.4619 21.0723C86.2966 21.4607 85.0342 21.5579 83.6747 21.1694C82.3152 20.781 81.247 20.0041 80.4701 19.1302ZM87.2676 17.6736C88.0445 16.8967 88.6271 15.9256 89.0156 14.5661C89.404 13.2066 89.404 12.0413 89.0156 10.9731C88.6271 9.90496 87.9474 9.32231 86.8792 9.03099C85.811 8.73967 84.84 8.93388 84.0631 9.71074C83.2862 10.4876 82.7036 11.4587 82.3152 12.8182C81.9267 14.1777 81.9267 15.343 82.3152 16.4112C82.7036 17.4793 83.3834 18.062 84.4515 18.3533C85.5197 18.6446 86.4908 18.4504 87.2676 17.6736ZM86.7821 4.46694L90.6664 0L93.7738 0.77686L89.2098 5.04959L86.7821 4.46694Z" fill="#F7F6FB"/>
<path d="M93.968 23.4028C93.4825 22.4317 93.3854 21.3635 93.4825 20.1011C93.5796 18.8387 94.0652 17.6734 94.7449 16.3139C95.8131 14.2747 97.0755 12.9152 98.6292 12.1383C100.183 11.3615 101.737 11.3615 103.29 12.2354C104.359 12.8181 105.038 13.4978 105.427 14.3718C105.815 15.2458 105.912 16.0226 105.912 16.7995L106.106 16.8966L110.088 9.2251L112.904 10.6817L103.387 29.1321L100.571 27.6755L101.834 25.2478L101.64 25.1507C100.96 25.6363 100.28 26.0247 99.309 26.2189C98.435 26.4131 97.4639 26.2189 96.3957 25.7334C95.2304 25.1507 94.4536 24.3739 93.968 23.4028ZM101.445 23.6941C102.416 23.1115 103.193 22.2375 103.776 21.0722C104.359 19.9069 104.65 18.7416 104.553 17.6734C104.456 16.6053 103.873 15.7313 102.902 15.2458C101.834 14.7602 100.863 14.7602 99.9887 15.2458C99.0176 15.8284 98.2408 16.7024 97.6581 17.8677C97.0755 19.0329 96.7842 20.1982 96.8813 21.3635C96.9784 22.4317 97.4639 23.3057 98.5321 23.7912C99.5032 24.2768 100.474 24.2768 101.445 23.6941Z" fill="#F7F6FB"/>
<path d="M114.263 19.2272L116.788 21.1694L108.049 32.8223L105.524 30.8801L114.263 19.2272ZM116.303 16.8967C116.206 16.4111 116.4 15.9256 116.691 15.4401C116.982 14.9545 117.468 14.7603 117.954 14.6632C118.439 14.5661 118.925 14.6632 119.313 15.0516C119.701 15.343 119.993 15.8285 119.993 16.314C119.993 16.7996 119.896 17.2851 119.604 17.7706C119.313 18.1591 118.828 18.4504 118.342 18.5475C117.856 18.6446 117.371 18.5475 116.982 18.2562C116.594 17.7706 116.4 17.3822 116.303 16.8967Z" fill="#F7F6FB"/>
<path d="M112.71 35.6385C112.516 34.4732 112.71 33.3079 113.195 32.1427C113.681 30.9774 114.361 29.9092 115.429 29.0352C116.4 28.0641 117.468 27.3844 118.633 26.996C119.799 26.5104 120.964 26.4133 122.129 26.7046C123.294 26.8989 124.363 27.5786 125.431 28.5497C126.402 29.6179 126.985 30.686 127.179 31.8513C127.373 33.0166 127.179 34.1819 126.693 35.3472C126.208 36.5125 125.431 37.4836 124.557 38.4546C123.586 39.4257 122.518 40.1055 121.352 40.591C120.187 41.0765 119.022 41.1737 117.856 40.9794C116.691 40.7852 115.526 40.1055 114.555 39.1344C113.487 37.9691 112.904 36.9009 112.71 35.6385ZM119.216 37.9691C120.284 37.7749 121.352 37.1922 122.323 36.2212C123.294 35.2501 123.974 34.279 124.168 33.2108C124.363 32.1427 124.168 31.2687 123.392 30.3947C122.615 29.6179 121.741 29.3265 120.673 29.5208C119.604 29.715 118.536 30.2976 117.565 31.2687C116.594 32.2398 115.914 33.2108 115.72 34.279C115.429 35.3472 115.72 36.3183 116.497 37.0951C117.274 37.872 118.148 38.1633 119.216 37.9691Z" fill="#F7F6FB"/>
<path d="M83.7718 85.9398L70.8565 98.2725C69.5941 99.4378 67.749 99.4378 66.4866 98.3696L35.5094 70.5969C34.1499 69.3345 34.0528 67.1981 35.4123 65.8386L52.6974 49.3303C54.0569 48.0679 56.1932 48.1651 57.4556 49.6217L84.0631 81.57C85.1313 82.8324 85.0342 84.7746 83.7718 85.9398Z" fill="#F7F6FB"/>
<path d="M83.7718 85.94L70.8565 98.2727C69.5941 99.4379 67.749 99.4379 66.4866 98.3698L37.4515 72.345L76.5858 72.6363L84.0631 81.5702C85.1313 82.8326 85.0342 84.7747 83.7718 85.94Z" fill="#5D4772"/>
<path d="M94.1623 96.9131L81.6354 108.857C80.7614 109.731 79.4019 109.731 78.528 108.857L73.3813 104.099C72.4102 103.225 72.4102 101.671 73.3813 100.7L86.2966 88.3677C87.2676 87.4937 88.7242 87.4937 89.5982 88.4648L94.2594 93.6115C95.1333 94.5826 95.1333 96.0392 94.1623 96.9131Z" fill="#F7F6FB"/>
<path d="M37.4515 74.2871C36.3833 74.2871 35.5094 73.4132 35.5094 72.345C35.5094 71.2768 36.3833 70.4028 37.4515 70.4028C38.5197 70.4028 39.3937 71.2768 39.3937 72.345C39.3937 73.4132 38.6168 74.2871 37.4515 74.2871Z" fill="#D65C70"/>
<path d="M93.9681 107.207C94.5044 107.207 94.9391 106.772 94.9391 106.235C94.9391 105.699 94.5044 105.264 93.9681 105.264C93.4317 105.264 92.997 105.699 92.997 106.235C92.997 106.772 93.4317 107.207 93.9681 107.207Z" fill="#F7F6FB"/>
<path d="M98.9205 110.8C99.4568 110.8 99.8916 110.365 99.8916 109.829C99.8916 109.292 99.4568 108.857 98.9205 108.857C98.3842 108.857 97.9495 109.292 97.9495 109.829C97.9495 110.365 98.3842 110.8 98.9205 110.8Z" fill="#F7F6FB"/>
<path d="M97.9494 115.946C98.4857 115.946 98.9205 115.512 98.9205 114.975C98.9205 114.439 98.4857 114.004 97.9494 114.004C97.4131 114.004 96.9784 114.439 96.9784 114.975C96.9784 115.512 97.4131 115.946 97.9494 115.946Z" fill="#F7F6FB"/>
<path d="M89.2098 112.256C89.7461 112.256 90.1809 111.821 90.1809 111.285C90.1809 110.749 89.7461 110.314 89.2098 110.314C88.6735 110.314 88.2387 110.749 88.2387 111.285C88.2387 111.821 88.6735 112.256 89.2098 112.256Z" fill="#F7F6FB"/>
<path d="M87.6561 117.306C88.1924 117.306 88.6271 116.871 88.6271 116.335C88.6271 115.798 88.1924 115.364 87.6561 115.364C87.1198 115.364 86.685 115.798 86.685 116.335C86.685 116.871 87.1198 117.306 87.6561 117.306Z" fill="#F7F6FB"/>
<path d="M92.997 119.831C93.5333 119.831 93.968 119.396 93.968 118.86C93.968 118.323 93.5333 117.888 92.997 117.888C92.4606 117.888 92.0259 118.323 92.0259 118.86C92.0259 119.396 92.4606 119.831 92.997 119.831Z" fill="#F7F6FB"/>
<path d="M93.9681 114.004C94.5044 114.004 94.9391 113.569 94.9391 113.033C94.9391 112.497 94.5044 112.062 93.9681 112.062C93.4317 112.062 92.997 112.497 92.997 113.033C92.997 113.569 93.4317 114.004 93.9681 114.004Z" fill="#F7F6FB"/>
<path d="M97.9494 102.837C98.4857 102.837 98.9205 102.402 98.9205 101.866C98.9205 101.329 98.4857 100.895 97.9494 100.895C97.4131 100.895 96.9784 101.329 96.9784 101.866C96.9784 102.402 97.4131 102.837 97.9494 102.837Z" fill="#F7F6FB"/>
<path d="M68.623 101.186C67.3606 101.186 66.0982 100.7 65.1271 99.8264L34.247 72.0537C33.1788 71.0826 32.5961 69.7231 32.499 68.2665C32.499 66.8099 33.0817 65.4504 34.0527 64.4793L51.3379 47.971C52.406 47 53.7656 46.4173 55.2222 46.5144C56.6788 46.6115 58.0383 47.2913 58.9122 48.3595L85.4226 80.3078C87.1705 82.3471 86.9763 85.4545 85.0342 87.3967L72.1189 99.7293C71.1478 100.7 69.8854 101.186 68.623 101.186ZM55.0279 50.3016C54.7366 50.3016 54.3482 50.3987 54.154 50.69L36.8689 67.1983C36.4804 67.4896 36.4804 67.9752 36.4804 68.1694C36.4804 68.3636 36.5775 68.752 36.8689 69.1405L67.749 96.9132C68.2346 97.3987 69.0114 97.3987 69.497 96.9132L82.4123 84.5805C82.8978 84.095 82.8978 83.3181 82.5094 82.8326L55.999 50.7871C55.8048 50.4958 55.4164 50.3016 55.0279 50.3016Z" fill="#F7F6FB"/>
</svg>
