<svg width="145" height="140" viewBox="0 0 145 140" fill="none" xmlns="http://www.w3.org/2000/svg">
<path d="M38.1592 123.889C37.6061 123.889 37.0531 123.889 37.0531 123.334C25.9925 112.778 19.9091 98.3336 19.9091 82.7781C19.9091 51.667 44.7955 26.667 75.7653 26.667C86.2729 26.667 96.7805 29.4448 105.629 35.5559C106.735 36.1114 106.735 37.2225 106.182 38.3337C105.629 39.4448 104.523 39.4448 103.417 38.8892C95.1214 33.3337 85.1668 30.5559 75.7653 30.5559C47.0077 30.5559 23.7804 53.8892 23.7804 82.7781C23.7804 96.667 28.7576 109.445 38.7122 118.889L53.091 105C53.644 104.445 55.3031 104.445 55.8562 105C56.4092 105.556 56.4092 107.223 55.8562 107.778L40.3713 123.334C39.2652 123.334 38.7122 123.889 38.1592 123.889Z" fill="#F7F6FB"/>
<path d="M77.9774 140C67.4699 140 56.9623 137.223 48.1138 131.111C47.0077 130.556 47.0077 129.445 47.5607 128.334C47.5607 127.778 49.2198 127.223 49.7729 127.778C58.0683 133.334 68.0229 136.111 77.4244 136.111C106.182 136.111 129.409 112.778 129.409 83.8892C129.409 70.0003 124.432 57.2225 114.477 47.7781L100.099 61.667C99.5457 62.2225 97.8866 62.2225 97.3335 61.667C96.7805 61.1114 96.7805 59.4448 97.3335 58.8892L112.818 43.3337C113.371 42.7781 115.031 42.7781 115.584 43.3337C126.644 53.8892 132.728 68.3337 132.728 83.8892C133.834 115 108.394 140 77.9774 140Z" fill="#F7F6FB"/>
<path d="M86.2729 42.2229H67.4699C66.9168 42.2229 66.3638 42.7785 65.8108 42.7785C64.7047 44.4451 64.7047 46.1118 65.8108 47.7785V48.334C66.3638 48.8896 66.3638 50.0007 66.3638 50.5562L60.2805 73.8896C59.7274 75.5562 59.7274 76.6673 59.7274 78.334V114.445C59.7274 120.001 64.1517 124.445 69.682 124.445H84.6138C90.1441 124.445 94.5684 120.001 94.5684 114.445V78.334C94.5684 76.6673 94.5684 75.5562 94.0153 73.8896L87.932 50.5562C87.932 49.4451 87.932 48.8896 88.485 48.334C89.5911 46.6673 89.5911 44.4451 88.485 43.334C87.379 42.7785 86.8259 42.2229 86.2729 42.2229Z" fill="#F7F6FB"/>
<path d="M70.2351 120.001H83.5078C87.379 120.001 90.1442 116.668 90.1442 113.334V78.8899H89.0381C85.7199 78.8899 82.9548 80.001 80.1896 81.1121L73.0002 84.4454C70.7881 85.5566 68.0229 85.5566 65.2578 85.001L63.0457 84.4454V113.334C63.0457 116.668 66.3638 120.001 70.2351 120.001Z" fill="#5D4772"/>
<path d="M15.4849 52.7781C14.3788 53.3337 13.2727 53.3337 12.1667 53.3337C11.0606 53.3337 10.5076 53.3337 9.40153 52.7781L11.0606 49.4448C11.6136 50.0003 12.1667 50.0003 12.7197 50.0003C13.2727 50.0003 13.8258 50.0003 14.3788 50.0003C14.9318 50.0003 15.4849 49.4448 16.0379 48.3337C16.0379 47.7781 16.5909 46.667 16.0379 46.1114C16.0379 45.0003 15.4849 44.4448 14.9318 44.4448C14.3788 43.8892 13.8258 43.8892 13.2727 43.8892C12.7197 43.8892 12.1667 44.4448 11.6136 45.0003L9.95456 46.667C8.84849 47.7781 7.74243 48.3337 6.63637 48.8892C5.53031 49.4448 4.42425 48.8892 2.76515 48.3337C1.65909 47.7781 1.10606 46.667 0.553031 46.1114C0 45.0003 0 43.8892 0 43.3337C0 42.2225 0.553031 41.1114 1.10606 40.0003C1.65909 38.8892 2.76515 37.7781 3.87122 37.2225C4.42425 36.667 5.53031 36.667 6.63637 36.667C7.74243 36.667 8.84849 37.2225 9.40153 37.2225L7.74243 40.5559C7.1894 40.5559 7.1894 40.0003 6.63637 40.0003C6.08334 40.0003 5.53031 40.0003 4.97728 40.0003C4.42425 40.0003 3.87122 40.5559 3.87122 41.1114C2.76515 42.2225 2.76515 42.7781 3.31819 43.8892C3.31819 44.4448 3.87122 45.0003 4.42425 45.5559C4.97728 46.1114 5.53031 46.1114 6.08334 45.5559C6.63637 45.5559 7.1894 45.0003 7.74243 44.4448L9.40153 42.7781C10.5076 41.667 11.6136 41.1114 12.7197 40.5559C13.8258 40.0003 15.4849 40.5559 16.5909 41.1114C17.697 41.667 18.25 42.2225 18.8031 43.3337C19.3561 44.4448 19.3561 45.5559 19.3561 46.667C19.3561 47.7781 18.8031 48.8892 18.25 50.0003C17.697 51.1114 16.5909 52.2225 15.4849 52.7781Z" fill="#F7F6FB"/>
<path d="M23.7803 40.5555C22.6743 40.5555 21.5682 40.5555 20.4621 40C18.803 40 17.697 38.8889 17.1439 38.3333C16.0379 37.2222 14.9318 36.1111 14.9318 35C14.3788 33.8889 13.8258 32.7778 14.3788 31.6666C14.3788 30.5555 14.9318 29.4444 16.0379 28.3333C17.1439 26.6666 18.803 26.1111 20.4621 26.1111C22.1212 26.1111 23.7803 27.2222 25.9924 28.8889L26.5455 29.4444L19.9091 36.6666C20.4621 37.2222 21.0152 37.2222 21.5682 37.7778C22.1212 37.7778 22.6743 37.7778 23.2273 37.7778C23.7803 37.7778 24.3334 37.2222 24.8864 36.6666C25.4394 36.1111 25.4394 35.5555 25.9924 35C25.9924 34.4444 25.9924 33.8889 25.4394 33.3333L27.6515 30.5555C28.2046 32.2222 28.7576 33.3333 28.7576 34.4444C28.7576 35.5555 28.2046 37.2222 27.0985 38.3333C25.9924 39.4444 24.8864 40 23.7803 40.5555ZM22.6743 30C21.5682 29.4444 20.4621 28.8889 19.9091 28.8889C18.803 28.8889 18.25 29.4444 17.697 30C17.1439 30.5555 16.5909 31.6666 16.5909 32.2222C16.5909 33.3333 17.1439 33.8889 18.25 35L22.6743 30Z" fill="#F7F6FB"/>
<path d="M24.3333 20L27.0985 18.3333L28.2046 20.5556C28.2046 20.5556 28.2046 20 28.2046 19.4444C28.2046 18.8889 28.2046 18.3333 28.7576 17.7778C29.3106 16.6667 29.8637 16.1111 30.4167 15.5556C31.5227 15 32.0758 15 33.1818 15C33.7349 15 34.8409 15 34.8409 15.5556C35.394 16.1111 35.947 16.1111 35.947 16.1111C35.947 15.5556 35.947 14.4444 35.947 13.3333C35.947 12.2222 37.0531 11.6667 38.1591 10.5556C39.2652 10 40.3712 10 40.9243 10C42.0303 10 42.5834 10.5556 43.6894 11.1111C44.2425 12.2222 45.3485 12.7778 45.3485 13.8889L49.7728 21.6667L47.5606 23.3333L43.1364 15.5556C42.5834 14.4444 41.4773 13.8889 40.9243 13.8889C40.3712 13.8889 39.2652 13.8889 38.7121 14.4444C38.1591 14.4444 37.6061 15 37.6061 16.1111C37.6061 16.6667 37.6061 17.7778 38.1591 18.8889L42.5834 26.1111L39.8182 27.7778L35.394 20.5556C34.8409 19.4444 33.7349 18.8889 33.1818 18.3333C32.6288 18.3333 31.5227 18.3333 30.9697 18.8889C30.4167 19.4444 29.8637 20 29.8637 20.5556C29.8637 21.1111 29.8637 22.2222 30.4167 23.3333L34.8409 30.5556L32.0758 32.2222L24.3333 20Z" fill="#F7F6FB"/>
<path d="M68.0228 14.4444L68.5758 17.2222L57.5152 19.4444L54.197 0.555556L57.5152 0L60.2803 16.1111L68.0228 14.4444Z" fill="#F7F6FB"/>
<path d="M71.341 15.555C70.235 13.8883 70.235 12.2217 70.235 9.99946C70.235 7.77723 70.788 6.11057 71.8941 4.4439C73.0001 3.33279 74.1062 2.22168 76.3183 2.22168C77.4244 2.22168 78.5305 2.77724 79.0835 3.33279C79.6365 3.88835 80.1895 4.4439 80.7426 5.55501V3.33279H84.0608L82.9547 17.7772H79.6365V14.9995C79.0835 15.555 78.5305 16.6661 77.9774 17.2217C77.4244 17.7772 76.3183 17.7772 75.2123 17.7772C73.5532 17.7772 72.4471 17.2217 71.341 15.555ZM79.0835 13.8883C79.6365 12.7772 80.1895 11.6661 80.1895 10.555C80.1895 9.4439 80.1895 8.33279 79.6365 7.22168C78.5304 6.11057 77.9774 5.55501 76.8714 5.55501C75.7653 5.55501 74.6592 6.11057 74.1062 6.66612C73.5532 7.77724 73.0001 8.88835 73.0001 9.99946C73.0001 11.1106 73.0001 12.2217 73.5532 13.3328C74.1062 14.4439 75.2123 14.9995 76.3183 14.9995C77.4244 14.9995 78.5305 14.4439 79.0835 13.8883Z" fill="#F7F6FB"/>
<path d="M87.9319 17.7777C87.3789 16.6666 86.8259 15.5555 86.2729 14.4444C86.2729 13.3333 86.2729 12.2221 86.2729 10.5555C86.8259 9.44436 87.3789 8.33325 87.9319 7.22214C88.485 6.11103 89.591 5.55547 90.6971 4.99992C91.8032 4.44436 92.9092 4.44436 94.5683 4.99992C96.2274 5.55547 97.3335 6.11103 98.4395 7.7777C99.5456 9.44436 100.099 11.111 99.5456 12.7777L96.7804 12.2221C96.7804 11.111 96.7804 10.5555 96.2274 9.99992C95.6744 9.44436 95.1214 8.88881 94.5683 8.88881C93.4623 8.33325 92.3562 8.88881 91.8032 9.44436C91.2501 9.99992 90.6971 11.111 90.1441 12.7777C89.591 13.8888 89.591 15.5555 90.1441 16.111C90.6971 17.2221 91.2501 17.7777 92.3562 18.3333C93.4623 18.3333 94.0153 18.3333 94.5683 17.7777C95.1214 17.2221 95.6744 16.6666 96.2274 16.111L98.9926 16.6666C98.4395 18.3333 97.3335 19.4444 96.2274 19.9999C95.1213 20.5555 93.4623 21.111 91.8032 20.5555C90.1441 19.4444 89.038 18.8888 87.9319 17.7777Z" fill="#F7F6FB"/>
<path d="M108.394 13.3334L105.076 20.0001C105.076 20.5557 105.076 21.1112 105.076 21.1112C105.076 21.6668 105.076 21.6668 105.076 22.2223C105.076 22.7779 105.629 22.7779 106.182 22.7779C106.735 22.7779 106.735 22.7779 107.288 23.3334L106.182 25.5557C106.182 25.5557 105.629 25.5557 105.076 25.5557C104.523 25.5557 103.97 25.0001 103.97 25.0001C102.864 24.4446 102.311 23.889 101.758 23.3334C101.205 22.7779 101.205 22.2223 101.205 21.6668C101.205 21.1112 101.758 20.5557 101.758 19.4446L105.076 12.2223L103.417 11.1112L104.523 8.889L106.735 10.0001L108.394 5.55566L111.159 6.66678L109.5 11.1112L112.265 12.2223L111.159 14.4446L108.394 13.3334Z" fill="#F7F6FB"/>
<path d="M110.606 27.2221C110.053 26.1109 110.053 24.9998 110.606 23.8887C110.606 22.7776 111.159 21.6665 112.265 20.5554C112.818 19.4443 113.924 18.3332 115.03 17.7776C115.583 17.2221 116.689 16.6665 118.349 16.6665C119.455 16.6665 120.561 17.2221 121.667 17.7776C122.773 18.8887 123.326 19.4443 123.879 20.5554C124.432 21.6665 124.432 22.7776 123.879 23.8887C123.326 24.9998 123.326 26.1109 122.22 27.2221C121.667 28.3332 120.561 29.4443 119.455 29.9998C118.349 30.5554 117.243 31.1109 116.136 31.1109C115.03 31.1109 113.924 30.5554 112.818 29.9998C111.712 29.4443 111.159 28.3332 110.606 27.2221ZM117.243 28.3332C118.349 27.7776 118.902 27.2221 120.008 26.1109C120.561 24.9998 121.114 23.8887 121.114 22.7776C121.114 21.6665 120.561 20.5554 120.008 19.9998C118.902 19.4443 118.349 19.4443 117.243 19.4443C116.136 19.9998 115.583 21.1109 114.477 22.2221C113.924 23.3332 113.371 24.4443 113.371 25.5554C113.371 26.6665 113.924 27.7776 114.477 28.3332C115.583 28.8887 116.136 28.8887 117.243 28.3332Z" fill="#F7F6FB"/>
<path d="M121.114 36.6664C121.114 35.5553 121.114 34.9997 121.114 33.8886C121.114 32.7775 121.667 32.2219 122.22 31.6664L124.432 33.8886C123.879 34.4441 123.879 34.9997 123.879 35.5553C123.879 36.1108 123.879 36.6664 124.432 37.2219C124.985 37.7775 125.538 37.7775 126.091 38.333C126.644 38.333 127.197 38.333 127.75 37.7775C128.303 37.2219 128.303 37.2219 128.303 36.6664C128.303 36.1108 128.303 35.5553 127.75 35.5553L126.644 33.8886C126.091 32.7775 125.538 32.2219 125.538 31.1108C125.538 29.9997 126.091 28.8886 126.644 28.333C127.75 27.2219 128.856 27.2219 129.962 27.2219C131.068 27.2219 132.174 27.7775 133.28 28.8886C133.833 29.4441 134.387 30.5553 134.94 31.6664C134.94 32.7775 134.94 33.333 134.94 33.8886C134.94 34.4441 134.387 35.5553 133.833 36.1108L132.174 33.333C132.174 32.7775 132.727 32.7775 132.727 32.2219C132.727 31.6664 132.727 31.1108 132.174 30.5553C131.621 29.9997 131.068 29.9997 130.515 29.9997C129.962 29.9997 129.409 29.9997 129.409 30.5553C128.856 31.1108 128.856 31.1108 128.856 31.6664C128.856 32.2219 128.856 32.7775 129.409 33.333L130.515 34.9997C131.068 36.1108 131.621 37.2219 131.621 37.7775C131.621 38.8886 131.068 39.4441 130.515 40.5553C129.962 41.1108 128.856 41.6664 128.303 41.6664C127.75 41.6664 126.644 41.6664 126.091 41.1108C125.538 40.5553 124.432 39.9997 123.879 39.4441C122.22 38.333 121.667 37.2219 121.114 36.6664Z" fill="#F7F6FB"/>
<path d="M129.409 46.1111C129.409 45 129.962 43.8889 130.515 42.7778C131.068 41.6667 132.174 41.1111 133.28 40C134.94 39.4445 136.046 38.8889 137.152 38.8889C138.258 38.8889 139.364 38.8889 140.47 39.4445C141.576 40 142.682 40.5556 143.235 42.2222C144.341 43.8889 144.341 45.5556 143.788 47.2222C143.788 48.3334 142.682 50 140.47 51.1111L139.917 51.6667L134.94 43.3334C133.833 43.8889 133.28 43.8889 132.727 44.4445C132.727 45 132.727 45.5556 132.174 46.1111C132.174 46.6667 132.174 47.2223 132.727 47.7778C133.28 48.3334 133.833 48.8889 134.387 48.8889C134.94 48.8889 135.493 49.4445 136.046 48.8889L137.705 51.6667C136.599 52.2223 134.94 52.2223 133.833 51.6667C132.727 51.1111 131.621 50.5556 130.515 48.8889C129.962 48.3334 129.409 47.2223 129.409 46.1111ZM139.917 47.7778C141.023 47.2223 141.576 46.1111 142.129 45.5556C142.129 45 142.129 43.8889 141.576 43.3334C141.023 42.2223 140.47 42.2222 139.364 41.6667C138.258 41.6667 137.705 41.6667 136.599 42.2222L139.917 47.7778Z" fill="#F7F6FB"/>
</svg>
