<svg width="171" height="140" viewBox="0 0 171 140" fill="none" xmlns="http://www.w3.org/2000/svg">
<path d="M48.0887 123.673C47.6039 123.673 47.1191 123.479 46.7313 123.091C35.5817 112.426 29.4737 98.0773 29.4737 82.6618C29.4737 51.8308 54.5845 26.72 85.4155 26.72C96.0803 26.72 106.454 29.7255 115.471 35.4457C116.344 36.0274 116.634 37.1909 116.053 38.1604C115.471 39.033 114.307 39.3238 113.338 38.7421C105 33.4097 95.3047 30.5981 85.4155 30.5981C56.7175 30.5981 33.3518 53.9637 33.3518 82.6618C33.3518 96.3322 38.5873 109.13 48.0887 118.922L62.4377 104.864C63.2133 104.088 64.4737 104.088 65.1524 104.864C65.928 105.64 65.928 106.9 65.1524 107.579L49.446 123.091C49.0582 123.479 48.5734 123.673 48.0887 123.673Z" fill="#F7F6FB"/>
<path d="M87.5485 139.961C76.8837 139.961 66.5097 136.955 57.4931 131.235C56.6205 130.653 56.3297 129.49 56.9114 128.521C57.4931 127.648 58.6565 127.357 59.6261 127.939C67.964 133.271 77.6593 136.083 87.5485 136.083C116.247 136.083 139.612 112.717 139.612 84.0191C139.612 70.3487 134.377 57.551 124.875 47.7587L110.526 61.8169C109.751 62.5925 108.49 62.5925 107.812 61.8169C107.036 61.0413 107.036 59.7809 107.812 59.1022L123.518 43.6867C124.294 42.9111 125.457 42.9111 126.233 43.6867C137.382 54.2546 143.49 68.6036 143.49 84.0191C143.49 114.85 118.38 139.961 87.5485 139.961Z" fill="#F7F6FB"/>
<path d="M14.8338 69.1855L13.7673 75.7783L18.518 78.2021L18.0332 81.4016L0 71.8032L0.484765 68.8946L20.651 65.3074L20.1662 68.5068L14.8338 69.1855ZM12.1191 69.6703L4.36288 70.9306V71.0276L11.4404 74.6149L12.1191 69.6703Z" fill="#F7F6FB"/>
<path d="M25.8864 52.7034L24.626 55.6119L22.3961 54.6424L22.2992 54.7394C22.8809 55.3211 23.2687 56.0967 23.4626 56.8723C23.6565 57.7449 23.5596 58.6175 23.1717 59.587C22.687 60.6535 22.0083 61.4291 21.2327 61.9139C20.3601 62.3986 19.4875 62.4956 18.518 62.4956C17.5485 62.3986 16.5789 62.2047 15.7064 61.8169L7.75623 58.5205L9.01661 55.6119L16.6759 58.8114C17.7424 59.2961 18.7119 59.3931 19.4875 59.1022C20.2632 58.8114 20.8449 58.3266 21.2327 57.454C21.6205 56.5815 21.6205 55.7089 21.1357 54.9333C20.651 54.1576 19.9723 53.5759 19.0028 53.1881L11.3435 49.9887L12.6039 47.0801L25.8864 52.7034Z" fill="#F7F6FB"/>
<path d="M19.8753 40.1965L25.8864 44.1716C26.4681 44.5594 26.8559 44.7533 27.1468 44.9472C27.4377 45.0442 27.7285 45.0442 28.0194 44.9472C28.3102 44.8503 28.6011 44.4625 28.9889 43.9777C29.1828 43.6868 29.3767 43.396 29.5706 42.9112L31.5097 44.1716C31.5097 44.2686 31.3158 44.5594 31.1219 44.9472C30.928 45.335 30.6371 45.8198 30.4432 46.2076C29.7645 47.1771 29.1828 47.8558 28.5041 48.1467C27.9224 48.4375 27.2438 48.4375 26.759 48.2436C26.2742 48.0497 25.4986 47.6619 24.723 47.1771L18.1302 42.8143L16.7728 44.8503L14.5429 43.396L15.9003 41.36L11.9252 38.7422L13.6704 36.1245L17.6454 38.7422L19.3906 36.1245L21.6205 37.5788L19.8753 40.1965Z" fill="#F7F6FB"/>
<path d="M21.2327 24.5869L22.8809 22.8418L28.5042 23.1327L26.4682 25.2656L23.5596 25.0717V25.1687L23.8504 27.9803L21.8144 30.1133L21.2327 24.5869ZM33.8366 40.0025C32.6731 40.1964 31.4128 40.0994 30.2493 39.6147C29.0859 39.1299 28.0194 38.4512 27.0499 37.5786C26.0803 36.7061 25.4017 35.6396 24.9169 34.4761C24.4321 33.3127 24.2382 32.1493 24.4321 30.9858C24.626 29.8224 25.2078 28.659 26.1773 27.5925C27.5346 26.2351 28.9889 25.5565 30.7341 25.6534C32.4792 25.7504 34.2244 26.623 35.9695 28.3681L36.6482 29.0468L29.8615 36.0274L30.0554 36.2213C30.5402 36.7061 31.0249 36.9969 31.7036 37.1908C32.2853 37.3847 32.964 37.3847 33.5457 37.2878C34.1274 37.1908 34.7092 36.803 35.097 36.4152C35.5817 35.8335 35.9695 35.2518 35.9695 34.6701C36.0665 33.9914 35.9695 33.4097 35.6787 32.731L37.8116 30.5011C38.5873 31.7615 38.8781 33.0219 38.8781 34.3792C38.8781 35.7365 38.1995 36.9969 37.036 38.2573C36.0665 39.2268 35 39.8086 33.8366 40.0025ZM32.964 29.7255C31.9945 28.8529 31.0249 28.3681 30.2493 28.3681C29.3767 28.3681 28.6011 28.659 28.0194 29.3376C27.3407 30.1133 27.0499 30.8889 27.0499 31.7615C27.1468 32.634 27.5346 33.5066 28.4072 34.3792L32.964 29.7255Z" fill="#F7F6FB"/>
<path d="M34.6122 20.2243L37.2299 18.4791L38.5872 20.4182L38.7812 20.3212C38.6842 19.5456 38.6842 18.673 39.072 17.8004C39.3629 16.9279 39.9446 16.2492 40.8172 15.6675C42.2715 14.6979 43.7258 14.504 44.9861 15.0858C46.2465 15.6675 47.41 16.637 48.2825 17.9943L53.2271 25.3628L50.6094 27.1079L45.9557 20.1273C45.277 19.1578 44.5983 18.4791 43.7258 18.2852C42.9501 18.0913 42.0776 18.1883 41.3019 18.77C40.4294 19.3517 39.9446 20.0304 39.9446 20.9999C39.8476 21.8725 40.1385 22.745 40.7202 23.7146L45.374 30.6952L42.6593 32.3434L34.6122 20.2243Z" fill="#F7F6FB"/>
<path d="M55.0692 11.5953L57.8809 18.1881C58.1717 18.7698 58.3657 19.2546 58.5596 19.5454C58.7535 19.8363 58.9474 19.9332 59.3352 20.0302C59.626 20.1272 60.1108 20.0302 60.6925 19.7393C60.9834 19.6424 61.3712 19.4485 61.759 19.1576L62.6316 21.2906C62.5346 21.3875 62.3407 21.4845 61.856 21.7754C61.4681 21.9693 60.9834 22.2601 60.5956 22.454C59.5291 22.9388 58.5596 23.1327 57.8809 22.9388C57.2022 22.7449 56.7174 22.551 56.3296 22.0662C55.9418 21.5814 55.651 20.9028 55.2632 20.1272L52.2576 12.8557L50.0277 13.8252L49.0582 11.4014L51.2881 10.4319L49.446 6.06898L52.3546 4.80859L54.1967 9.17147L57.1053 7.91109L58.0748 10.3349L55.0692 11.5953Z" fill="#F7F6FB"/>
<path d="M60.6925 3.54829C60.2078 3.25743 60.0139 2.86962 59.82 2.38485C59.6261 1.90009 59.723 1.31837 59.9169 0.930561C60.1108 0.54275 60.4986 0.154938 61.0803 0.0579852C61.6621 -0.0389677 62.0499 -0.0389677 62.5346 0.251891C63.0194 0.54275 63.2133 0.930561 63.4072 1.41533C63.5042 1.90009 63.5042 2.38485 63.3103 2.86962C63.1164 3.35438 62.7285 3.64524 62.2438 3.7422C61.6621 3.9361 61.1773 3.83915 60.6925 3.54829ZM61.3712 6.65078L64.3767 5.77821L68.2549 19.8364L65.2493 20.709L61.3712 6.65078Z" fill="#F7F6FB"/>
<path d="M73.3934 17.8003C72.3269 17.2186 71.4543 16.346 70.8726 15.2796C70.2909 14.2131 69.9031 12.9527 69.7091 11.6923C69.6122 10.4319 69.7091 9.17153 70 7.91114C70.3878 6.74771 70.9695 5.68123 71.8421 4.9056C72.7147 4.12998 73.8781 3.54826 75.3324 3.45131C77.1745 3.2574 78.6288 3.64521 79.7923 4.61474C80.9557 5.58427 81.7313 6.94161 82.1191 8.49286L79.0166 8.88067C78.8227 8.0081 78.4349 7.32943 77.8532 6.84466C77.2715 6.3599 76.4959 6.16599 75.6233 6.26294C74.4598 6.3599 73.6842 6.94161 73.1995 7.91114C72.7147 8.88067 72.6177 10.0441 72.7147 11.4014C72.9086 12.7588 73.2964 13.9222 73.9751 14.6978C74.6537 15.5704 75.5263 15.9582 76.6898 15.7643C77.5623 15.6674 78.241 15.2796 78.7258 14.6978C79.2105 14.1161 79.4044 13.3405 79.5014 12.371L82.6039 11.9832C82.6039 13.6314 82.1191 15.0857 81.1496 16.346C80.1801 17.6064 78.8227 18.2851 76.9806 18.479C75.7202 18.6729 74.4598 18.479 73.3934 17.8003Z" fill="#F7F6FB"/>
<path d="M87.5485 17.0247C86.6759 16.2491 85.9972 15.2796 85.6094 14.0192C85.2216 12.7588 85.1247 11.5954 85.3186 10.238C85.4155 8.88069 85.8033 7.71726 86.3851 6.55382C86.9668 5.48734 87.8393 4.61476 88.9058 4.03304C89.9723 3.45133 91.2327 3.25742 92.59 3.35437C94.0443 3.54828 95.2078 4.03304 96.0803 4.80867C96.9529 5.58429 97.6316 6.55382 98.0194 7.81421C98.4072 9.0746 98.5042 10.238 98.3103 11.5954C98.2133 12.9527 97.8255 14.1161 97.2438 15.2796C96.6621 16.3461 95.7895 17.2186 94.82 17.8004C93.7535 18.3821 92.4931 18.576 91.1357 18.479C89.6814 18.2851 88.518 17.8004 87.5485 17.0247ZM94.0443 14.6009C94.723 13.7283 95.1108 12.6619 95.3047 11.3045C95.4017 9.94717 95.3047 8.78374 94.723 7.81421C94.2382 6.84468 93.4626 6.26296 92.2992 6.16601C91.2327 6.06906 90.2632 6.45687 89.5845 7.23249C88.9058 8.10507 88.518 9.17155 88.3241 10.5289C88.1302 11.8862 88.3241 13.0497 88.8089 14.0192C89.2936 14.9887 90.0693 15.5704 91.2327 15.6674C92.4931 15.8613 93.3657 15.4735 94.0443 14.6009Z" fill="#F7F6FB"/>
<path d="M111.496 2.57886L114.404 3.83925L112.465 20.3212L112.562 20.4182L123.518 8.00822L126.427 9.26861L112.95 24.3933L109.169 22.6481L111.496 2.57886Z" fill="#F7F6FB"/>
<path d="M121.676 28.3683C121.288 27.2049 121.288 26.0414 121.579 24.781C121.87 23.6176 122.452 22.4542 123.227 21.3877C124.003 20.3212 124.972 19.4486 126.039 18.8669C127.105 18.2852 128.269 17.8974 129.529 17.9943C130.789 17.9943 131.953 18.4791 133.116 19.3517C134.668 20.5151 135.443 21.9694 135.54 23.7146C135.637 25.4597 134.958 27.3018 133.504 29.2409L132.922 29.9195L125.166 24.0054L125.069 24.1993C124.681 24.6841 124.391 25.2658 124.294 25.9445C124.197 26.5262 124.197 27.2049 124.391 27.7866C124.584 28.3683 124.972 28.8531 125.457 29.2409C126.039 29.7256 126.717 29.9195 127.299 29.9195C127.978 29.9195 128.56 29.7256 129.141 29.4348L131.662 31.2769C130.499 32.1495 129.238 32.6342 127.881 32.7312C126.524 32.8281 125.166 32.3434 123.809 31.3738C122.742 30.5982 122.064 29.5317 121.676 28.3683ZM131.856 26.3323C132.632 25.2658 132.922 24.2963 132.825 23.4237C132.729 22.5511 132.341 21.8725 131.565 21.2907C130.789 20.709 129.917 20.5151 129.044 20.6121C128.172 20.709 127.299 21.3877 126.621 22.2603L131.856 26.3323Z" fill="#F7F6FB"/>
<path d="M141.066 26.72L143.199 29.0468L141.454 30.5981L141.551 30.695C142.133 30.4042 142.909 30.4042 143.587 30.5011C144.363 30.5981 145.042 31.0829 145.623 31.7615C145.817 32.0524 146.011 32.2463 146.205 32.6341L143.781 34.6701C143.684 34.3792 143.587 34.1853 143.49 34.0884C143.393 33.8945 143.199 33.7006 143.006 33.5067C142.327 32.731 141.551 32.3432 140.679 32.3432C139.903 32.3432 138.934 32.828 137.867 33.7975L132.341 38.936L130.208 36.6092L141.066 26.72Z" fill="#F7F6FB"/>
<path d="M148.532 35.349L150.374 37.8697L138.546 46.4016L136.704 43.8808L148.532 35.349ZM151.15 33.7008C151.247 33.216 151.537 32.8282 151.925 32.4404C152.41 32.1495 152.895 31.9556 153.38 32.0526C153.864 32.1495 154.252 32.3434 154.64 32.8282C155.028 33.313 155.028 33.7008 154.931 34.1855C154.834 34.6703 154.543 35.0581 154.155 35.4459C153.767 35.7368 153.283 35.9307 152.701 35.8337C152.119 35.7368 151.828 35.5429 151.44 35.0581C151.053 34.5733 151.053 34.1855 151.15 33.7008Z" fill="#F7F6FB"/>
<path d="M141.648 50.3765C141.648 49.407 141.939 48.5344 142.327 47.8557C142.715 47.177 143.393 46.5953 144.072 46.2075L144.266 46.1106L145.72 48.8252L145.526 48.9222C145.042 49.213 144.654 49.6009 144.46 50.1826C144.266 50.7643 144.363 51.443 144.751 52.1216C145.042 52.7034 145.429 53.0912 145.914 53.2851C146.399 53.479 146.884 53.479 147.465 53.1881C147.95 52.9942 148.241 52.6064 148.338 52.1216C148.435 51.6369 148.435 51.1521 148.241 50.6673L147.756 49.0191C147.465 47.9527 147.368 46.9831 147.562 45.9167C147.756 44.8502 148.435 44.0745 149.598 43.4928C150.762 42.8142 151.925 42.8142 153.089 43.2989C154.252 43.7837 155.125 44.6563 155.803 46.0136C156.288 46.9831 156.579 47.8557 156.579 48.8252C156.579 49.6978 156.385 50.4734 155.997 51.1521C155.609 51.8308 155.028 52.3155 154.349 52.7034L154.252 52.8003L152.798 50.0856H152.895C153.38 49.8917 153.67 49.5039 153.864 48.9222C154.058 48.4374 154.058 47.7588 153.67 47.0801C153.38 46.4984 152.992 46.1106 152.507 45.9167C152.022 45.7227 151.537 45.8197 151.053 46.0136C150.665 46.2075 150.374 46.5953 150.277 46.9831C150.18 47.4679 150.18 47.9527 150.374 48.4374L150.956 50.1826C151.247 51.346 151.344 52.3155 151.053 53.382C150.859 54.3516 150.18 55.1272 149.114 55.7089C148.338 56.0967 147.465 56.2906 146.69 56.1937C145.817 56.0967 145.139 55.8058 144.363 55.2241C143.684 54.6424 143.103 53.9637 142.618 53.0912C141.939 52.3155 141.648 51.346 141.648 50.3765Z" fill="#F7F6FB"/>
<path d="M147.271 61.72C147.659 60.5566 148.338 59.5871 149.307 58.8114C150.277 58.0358 151.44 57.4541 152.701 57.0663C153.961 56.6785 155.222 56.5815 156.482 56.7754C157.742 56.9693 158.809 57.3571 159.778 58.1328C160.748 58.9084 161.427 59.9749 161.814 61.3322C162.202 62.6895 162.202 63.9499 161.814 65.1134C161.427 66.2768 160.748 67.2463 159.778 68.022C158.809 68.7976 157.645 69.3793 156.385 69.7671C155.125 70.1549 153.864 70.2519 152.604 70.1549C151.343 70.058 150.277 69.5732 149.307 68.7976C148.338 68.022 147.659 66.9555 147.271 65.5981C146.884 64.0469 146.884 62.7865 147.271 61.72ZM152.022 66.7616C153.089 67.0524 154.252 67.0524 155.609 66.6646C156.967 66.2768 157.936 65.6951 158.615 64.8225C159.294 63.9499 159.488 63.0774 159.197 62.0109C158.906 60.9444 158.227 60.2657 157.161 59.9749C156.094 59.684 154.931 59.684 153.573 60.0718C152.216 60.4596 151.247 61.0414 150.471 61.9139C149.792 62.7865 149.501 63.6591 149.889 64.7256C150.277 65.6951 150.956 66.4707 152.022 66.7616Z" fill="#F7F6FB"/>
<path d="M150.083 75.1966C150.374 74.6149 150.859 74.1301 151.44 73.9362C152.022 73.7423 152.798 73.5484 153.67 73.4515L169.958 71.7063L170.346 74.8088L154.64 76.5539C153.961 76.6509 153.476 76.7479 153.186 76.8448C152.895 76.9418 152.604 77.1357 152.507 77.4265C152.313 77.7174 152.313 78.2022 152.41 78.7839C152.41 78.9778 152.507 79.2686 152.507 79.5595L150.18 79.8503C149.986 79.2686 149.889 78.6869 149.792 77.9113C149.598 76.6509 149.695 75.7783 150.083 75.1966Z" fill="#F7F6FB"/>
<path d="M86.385 58.9085L90.651 71.9972C90.8449 72.4819 91.2327 72.7728 91.8144 72.7728H105.582C106.745 72.7728 107.23 74.2271 106.26 74.9058L95.0139 83.0498C94.626 83.3407 94.4321 83.9224 94.626 84.4071L98.892 97.4958C99.2798 98.5623 98.0194 99.4348 97.0499 98.8531L85.9003 90.7091C85.5125 90.4182 84.9307 90.4182 84.5429 90.7091L73.3934 98.8531C72.4238 99.5318 71.2604 98.6592 71.5513 97.4958L75.8172 84.3102C76.0111 83.8254 75.8172 83.3407 75.4294 82.9528L64.2798 74.8088C63.3103 74.1301 63.795 72.6758 64.9585 72.6758H78.7258C79.2105 72.6758 79.6953 72.385 79.8892 71.9002L84.1551 58.8116C84.446 57.7451 85.9972 57.7451 86.385 58.9085Z" fill="#F7F6FB"/>
</svg>
