<svg width="255" height="56" viewBox="0 0 255 56" fill="none" xmlns="http://www.w3.org/2000/svg">
<g clip-path="url(#clip0_616:1495)">
<path d="M74.0109 40.5349C71.5384 41.3489 68.901 40.0465 68.0768 37.6047V37.4419C65.6043 40.0465 62.3076 42 58.3516 42C52.7472 42 49.7802 39.0698 49.7802 32.721V20.5117C49.7802 17.7442 51.5933 15.3024 54.3955 14.4884H54.5604V32.8838C54.5604 35 54.5604 40.3721 60.4944 40.3721C62.967 40.3721 65.934 38.907 68.0768 36.4651V20.6744C68.0768 15.6279 73.0219 14.6512 73.0219 14.6512C73.0219 14.6512 72.8571 15.4651 72.8571 17.2558C72.8571 21.3256 72.8571 33.3721 72.8571 33.3721C72.8571 37.2791 73.1867 39.721 74.0109 40.5349Z" fill="#EDEDF7"/>
<path d="M101.209 40.2093V40.5349C100.385 41.0233 98.9011 41.8372 97.0879 41.8372C93.7912 41.8372 93.1318 39.5582 93.1318 38.0931C90.4945 40.5349 87.0329 42 83.7362 42C79.4505 42 76.6483 39.5582 76.6483 35.814C76.6483 31.2558 81.0989 28.3256 88.0219 27.5117C89.8351 27.3489 91.4835 27.1861 92.967 27.0233V24.2558C92.967 19.3721 91.4835 16.1163 86.5384 16.1163C83.7362 16.1163 81.4285 17.0931 78.956 19.0465L78.4615 18.5582C81.2637 16.1163 84.0659 14.4884 88.3516 14.4884C94.6153 14.4884 97.7472 17.4186 97.7472 23.9303V36.6279C97.7472 39.0698 97.7472 40.3721 100.22 40.3721C100.714 40.3721 101.044 40.3721 101.209 40.2093ZM93.1318 37.1163V27.8372C86.2088 28.4884 81.5934 30.1163 81.5934 35C81.5934 38.4186 83.7362 40.0465 86.5384 40.0465C88.5164 40.2093 90.989 39.2326 93.1318 37.1163Z" fill="#EDEDF7"/>
<path d="M104.67 7.32551C104.67 4.55807 106.483 1.95342 109.286 1.13947H109.451V36.7906C109.451 39.3953 107.308 41.5116 104.67 41.5116V7.32551Z" fill="#EDEDF7"/>
<path d="M116.209 5.2093C117.198 4.23256 118.681 4.23256 119.67 5.2093C120.659 6.18605 120.659 7.65116 119.67 8.62791C118.681 9.60465 117.198 9.60465 116.209 8.62791C115.22 7.65116 115.22 6.18605 116.209 5.2093Z" fill="#EFD460"/>
<path d="M115.549 20.5117C115.549 17.7442 117.363 15.3024 120.165 14.4884H120.33V36.7907C120.33 39.3954 118.187 41.5117 115.549 41.5117V20.5117Z" fill="#EDEDF7"/>
<path d="M164.67 40.2093V40.5349C163.846 41.0233 162.363 41.8372 160.549 41.8372C157.253 41.8372 156.593 39.5582 156.593 38.0931C153.956 40.5349 150.494 42 147.198 42C142.912 42 140.11 39.5582 140.11 35.814C140.11 31.2558 144.56 28.3256 151.483 27.5117C153.297 27.3489 154.945 27.1861 156.429 27.0233V24.2558C156.429 19.3721 154.945 16.1163 150 16.1163C147.198 16.1163 144.89 17.0931 142.418 19.0465L141.923 18.5582C144.725 16.1163 147.527 14.4884 151.813 14.4884C158.077 14.4884 161.209 17.4186 161.209 23.9303V36.6279C161.209 39.0698 161.209 40.3721 163.681 40.3721C164.011 40.3721 164.341 40.3721 164.67 40.2093ZM156.429 37.1163V27.8372C149.505 28.4884 144.89 30.1163 144.89 35C144.89 38.4186 147.033 40.0465 149.835 40.0465C151.813 40.2093 154.286 39.2326 156.429 37.1163Z" fill="#EDEDF7"/>
<path d="M183.132 14.814L181.648 18.5582C180.659 18.2326 179.67 17.907 178.846 17.907C176.044 17.907 173.736 19.8605 172.582 22.4651V36.6279C172.582 39.2326 170.44 41.3489 167.802 41.3489V20.5117C167.802 17.7442 169.615 15.3024 172.253 14.4884H172.418V21C174.231 16.9303 177.033 14.4884 180.659 14.4884C181.648 14.4884 182.473 14.6512 183.132 14.814Z" fill="#EDEDF7"/>
<path d="M226.813 23.7675V36.7907C226.813 39.3954 224.67 41.5117 222.033 41.5117V23.7675C222.033 21.6512 222.033 16.2791 216.099 16.2791C213.297 16.2791 211.154 17.4186 208.352 20.1861C208.681 21.1628 208.681 22.4652 208.681 23.7675V36.6279C208.681 39.2326 206.538 41.3489 203.901 41.3489V23.7675C203.901 21.6512 203.901 16.2791 198.132 16.2791C195.495 16.2791 193.352 17.2559 190.879 19.6977V36.7907C190.879 39.3954 188.736 41.5117 186.099 41.5117V20.5117C186.099 17.7442 187.912 15.3024 190.714 14.4884H190.879V18.721C193.681 15.9535 196.319 14.3256 200.275 14.3256C204.231 14.3256 206.868 15.9535 208.187 19.2093C211.154 16.2791 213.956 14.3256 218.242 14.3256C223.846 14.4884 226.813 17.4186 226.813 23.7675Z" fill="#EDEDF7"/>
<path d="M255 40.2093V40.5349C254.176 41.0233 252.692 41.8372 250.879 41.8372C247.582 41.8372 246.923 39.5582 246.923 38.0931C244.286 40.5349 240.824 42 237.527 42C233.242 42 230.44 39.5582 230.44 35.814C230.44 31.2558 234.89 28.3256 241.813 27.5117C243.626 27.3489 245.275 27.1861 246.758 27.0233V24.2558C246.758 19.3721 245.275 16.1163 240.33 16.1163C237.527 16.1163 235.22 17.0931 232.747 19.0465L232.253 18.5582C235.055 16.1163 237.857 14.4884 242.143 14.4884C248.407 14.4884 251.539 17.4186 251.539 23.9303V36.6279C251.539 39.0698 251.539 40.3721 254.011 40.3721C254.341 40.3721 254.67 40.3721 255 40.2093ZM246.758 37.1163V27.8372C239.835 28.4884 235.22 30.1163 235.22 35C235.22 38.4186 237.363 40.0465 240.165 40.0465C242.308 40.2093 244.615 39.2326 246.758 37.1163Z" fill="#EDEDF7"/>
<path d="M33.9556 39.2326C40.549 42 54.7249 52.2558 67.0875 52.2558C71.3732 52.2558 75.3293 50.4651 77.637 48.6744C77.9666 48.3488 78.4611 48.8372 78.1315 49.1628C74.8348 52.907 69.0655 55.6744 62.637 55.6744C53.9007 55.6744 47.637 52.4186 37.9117 45.907C35.604 44.2791 31.8128 41.8372 29.9996 41.0233C27.6919 41.8372 25.2194 42.1628 22.7468 42.1628C10.0545 42.3256 0.494097 35.8139 -0.000408165 21.9767C-0.494914 9.11628 9.56003 0 23.2414 0C36.9227 0 44.5051 10.093 44.5051 20.3488C44.5051 28.8139 40.3842 35.6512 33.9556 39.2326ZM6.42816 21C6.42816 29.4651 9.8897 35.8139 15.6589 38.907C17.8018 37.2791 20.2743 36.1395 23.2414 36.1395C26.3732 36.1395 29.1754 36.9535 31.6479 37.9302C35.9337 34.8372 38.4062 29.4651 38.4062 22.9535C38.2413 12.2093 32.9666 1.62791 20.7688 1.95349C11.0435 2.11628 6.42816 9.93023 6.42816 21ZM28.0216 39.7209C26.3732 38.907 24.3952 38.093 21.4282 38.093C19.615 38.093 17.9666 38.5814 16.6479 39.3953C18.2963 40.0465 20.2743 40.3721 22.582 40.3721C24.3952 40.3721 26.3732 40.2093 28.0216 39.7209Z" fill="#EDEDF7"/>
<path d="M133.022 10.093V14.9768H141.429L140.769 16.1163H133.022V36.7907C133.022 39.3954 130.879 41.5116 128.242 41.5116V16.1163H124.286V14.9768H128.242V10.2558C128.242 4.06978 131.703 0.813965 136.978 0.813965C139.615 0.813965 142.253 1.62792 144.89 3.09303L144.56 3.7442C142.253 2.76745 140.604 2.60466 139.121 2.60466C135.33 2.60466 133.022 4.88373 133.022 10.093Z" fill="#EDEDF7"/>
</g>
<defs>
<clipPath id="clip0_616:1495">
<rect width="255" height="56" fill="white"/>
</clipPath>
</defs>
</svg>
